%TF.GenerationSoftware,KiCad,Pcbnew,7.0.5-0*%
%TF.CreationDate,2023-10-01T14:43:51-07:00*%
%TF.ProjectId,FONA_pi,464f4e41-5f70-4692-9e6b-696361645f70,rev?*%
%TF.SameCoordinates,Original*%
%TF.FileFunction,Copper,L2,Bot*%
%TF.FilePolarity,Positive*%
%FSLAX46Y46*%
G04 Gerber Fmt 4.6, Leading zero omitted, Abs format (unit mm)*
G04 Created by KiCad (PCBNEW 7.0.5-0) date 2023-10-01 14:43:51*
%MOMM*%
%LPD*%
G01*
G04 APERTURE LIST*
G04 Aperture macros list*
%AMRoundRect*
0 Rectangle with rounded corners*
0 $1 Rounding radius*
0 $2 $3 $4 $5 $6 $7 $8 $9 X,Y pos of 4 corners*
0 Add a 4 corners polygon primitive as box body*
4,1,4,$2,$3,$4,$5,$6,$7,$8,$9,$2,$3,0*
0 Add four circle primitives for the rounded corners*
1,1,$1+$1,$2,$3*
1,1,$1+$1,$4,$5*
1,1,$1+$1,$6,$7*
1,1,$1+$1,$8,$9*
0 Add four rect primitives between the rounded corners*
20,1,$1+$1,$2,$3,$4,$5,0*
20,1,$1+$1,$4,$5,$6,$7,0*
20,1,$1+$1,$6,$7,$8,$9,0*
20,1,$1+$1,$8,$9,$2,$3,0*%
G04 Aperture macros list end*
%TA.AperFunction,ComponentPad*%
%ADD10R,1.700000X1.700000*%
%TD*%
%TA.AperFunction,ComponentPad*%
%ADD11O,1.700000X1.700000*%
%TD*%
%TA.AperFunction,ComponentPad*%
%ADD12C,1.600000*%
%TD*%
%TA.AperFunction,ComponentPad*%
%ADD13O,1.600000X1.600000*%
%TD*%
%TA.AperFunction,ComponentPad*%
%ADD14R,1.800000X1.800000*%
%TD*%
%TA.AperFunction,ComponentPad*%
%ADD15C,1.800000*%
%TD*%
%TA.AperFunction,ComponentPad*%
%ADD16RoundRect,0.250000X0.725000X-0.600000X0.725000X0.600000X-0.725000X0.600000X-0.725000X-0.600000X0*%
%TD*%
%TA.AperFunction,ComponentPad*%
%ADD17O,1.950000X1.700000*%
%TD*%
%TA.AperFunction,ComponentPad*%
%ADD18RoundRect,0.250000X-0.750000X-1.050000X0.750000X-1.050000X0.750000X1.050000X-0.750000X1.050000X0*%
%TD*%
%TA.AperFunction,ComponentPad*%
%ADD19O,2.000000X2.600000*%
%TD*%
%TA.AperFunction,Conductor*%
%ADD20C,0.250000*%
%TD*%
G04 APERTURE END LIST*
D10*
%TO.P,J5,1,Pin_1*%
%TO.N,Net-(J5-Pin_1)*%
X147955000Y-60934600D03*
D11*
%TO.P,J5,2,Pin_2*%
%TO.N,Net-(J5-Pin_2)*%
X147955000Y-63474600D03*
%TO.P,J5,3,Pin_3*%
%TO.N,Net-(J5-Pin_3)*%
X147955000Y-66014600D03*
%TO.P,J5,4,Pin_4*%
%TO.N,Net-(J10-Pin_3)*%
X147955000Y-68554600D03*
%TO.P,J5,5,Pin_5*%
%TO.N,Net-(J5-Pin_5)*%
X147955000Y-71094600D03*
%TO.P,J5,6,Pin_6*%
%TO.N,Net-(J2-Pin_8)*%
X147955000Y-73634600D03*
%TO.P,J5,7,Pin_7*%
%TO.N,Net-(J2-Pin_10)*%
X147955000Y-76174600D03*
%TO.P,J5,8,Pin_8*%
%TO.N,Net-(J5-Pin_8)*%
X147955000Y-78714600D03*
%TO.P,J5,9,Pin_9*%
%TO.N,Net-(J5-Pin_9)*%
X147955000Y-81254600D03*
%TO.P,J5,10,Pin_10*%
%TO.N,Net-(J5-Pin_10)*%
X147955000Y-83794600D03*
%TO.P,J5,11,Pin_11*%
%TO.N,Net-(G5-A)*%
X147955000Y-86334600D03*
%TO.P,J5,12,Pin_12*%
%TO.N,Net-(J5-Pin_12)*%
X147955000Y-88874600D03*
%TO.P,J5,13,Pin_13*%
%TO.N,Net-(J5-Pin_13)*%
X147955000Y-91414600D03*
%TO.P,J5,14,Pin_14*%
%TO.N,Net-(J5-Pin_14)*%
X147955000Y-93954600D03*
%TO.P,J5,15,Pin_15*%
%TO.N,Net-(J18-Pin_4)*%
X147955000Y-96494600D03*
%TO.P,J5,16,Pin_16*%
%TO.N,Net-(J18-Pin_3)*%
X147955000Y-99034600D03*
%TO.P,J5,17,Pin_17*%
%TO.N,Net-(J18-Pin_2)*%
X147955000Y-101574600D03*
%TO.P,J5,18,Pin_18*%
%TO.N,Net-(J18-Pin_1)*%
X147955000Y-104114600D03*
%TD*%
D12*
%TO.P,R1,1*%
%TO.N,Net-(J1-Pin_16)*%
X124104400Y-69773800D03*
D13*
%TO.P,R1,2*%
%TO.N,Net-(D3-A)*%
X131724400Y-69773800D03*
%TD*%
D10*
%TO.P,J13,1,Pin_1*%
%TO.N,Net-(J13-Pin_1)*%
X124383800Y-96418400D03*
D11*
%TO.P,J13,2,Pin_2*%
%TO.N,Net-(J13-Pin_2)*%
X124383800Y-98958400D03*
%TO.P,J13,3,Pin_3*%
%TO.N,Net-(J13-Pin_3)*%
X124383800Y-101498400D03*
%TO.P,J13,4,Pin_4*%
%TO.N,Net-(J13-Pin_4)*%
X124383800Y-104038400D03*
%TO.P,J13,5,Pin_5*%
%TO.N,Net-(J13-Pin_5)*%
X124383800Y-106578400D03*
%TO.P,J13,6,Pin_6*%
%TO.N,Net-(J13-Pin_6)*%
X124383800Y-109118400D03*
%TD*%
D10*
%TO.P,J6,1,Pin_1*%
%TO.N,Net-(J5-Pin_1)*%
X153286400Y-60960000D03*
D11*
%TO.P,J6,2,Pin_2*%
%TO.N,Net-(J5-Pin_2)*%
X153286400Y-63500000D03*
%TO.P,J6,3,Pin_3*%
%TO.N,Net-(J5-Pin_3)*%
X153286400Y-66040000D03*
%TO.P,J6,4,Pin_4*%
%TO.N,Net-(J10-Pin_3)*%
X153286400Y-68580000D03*
%TO.P,J6,5,Pin_5*%
%TO.N,Net-(J5-Pin_5)*%
X153286400Y-71120000D03*
%TO.P,J6,6,Pin_6*%
%TO.N,Net-(J2-Pin_8)*%
X153286400Y-73660000D03*
%TO.P,J6,7,Pin_7*%
%TO.N,Net-(J2-Pin_10)*%
X153286400Y-76200000D03*
%TO.P,J6,8,Pin_8*%
%TO.N,Net-(J5-Pin_8)*%
X153286400Y-78740000D03*
%TO.P,J6,9,Pin_9*%
%TO.N,Net-(J5-Pin_9)*%
X153286400Y-81280000D03*
%TO.P,J6,10,Pin_10*%
%TO.N,Net-(J5-Pin_10)*%
X153286400Y-83820000D03*
%TO.P,J6,11,Pin_11*%
%TO.N,Net-(G5-A)*%
X153286400Y-86360000D03*
%TO.P,J6,12,Pin_12*%
%TO.N,Net-(J5-Pin_12)*%
X153286400Y-88900000D03*
%TO.P,J6,13,Pin_13*%
%TO.N,Net-(J5-Pin_13)*%
X153286400Y-91440000D03*
%TO.P,J6,14,Pin_14*%
%TO.N,Net-(J5-Pin_14)*%
X153286400Y-93980000D03*
%TO.P,J6,15,Pin_15*%
%TO.N,Net-(J18-Pin_4)*%
X153286400Y-96520000D03*
%TO.P,J6,16,Pin_16*%
%TO.N,Net-(J18-Pin_3)*%
X153286400Y-99060000D03*
%TO.P,J6,17,Pin_17*%
%TO.N,Net-(J18-Pin_2)*%
X153286400Y-101600000D03*
%TO.P,J6,18,Pin_18*%
%TO.N,Net-(J18-Pin_1)*%
X153286400Y-104140000D03*
%TD*%
D12*
%TO.P,R6,1*%
%TO.N,Net-(J2-Pin_16)*%
X124053600Y-91922600D03*
D13*
%TO.P,R6,2*%
%TO.N,Net-(J10-Pin_1)*%
X131673600Y-91922600D03*
%TD*%
D14*
%TO.P,D3,1,K*%
%TO.N,Net-(D1-K)*%
X137439400Y-72948800D03*
D15*
%TO.P,D3,2,A*%
%TO.N,Net-(D3-A)*%
X134899400Y-72948800D03*
%TD*%
D12*
%TO.P,R3,1*%
%TO.N,Net-(J1-Pin_19)*%
X124104400Y-60883800D03*
D13*
%TO.P,R3,2*%
%TO.N,Net-(D1-A)*%
X131724400Y-60883800D03*
%TD*%
D16*
%TO.P,J9,1,Pin_1*%
%TO.N,Net-(J18-Pin_1)*%
X136347200Y-106629200D03*
D17*
%TO.P,J9,2,Pin_2*%
%TO.N,Net-(J18-Pin_2)*%
X136347200Y-104129200D03*
%TO.P,J9,3,Pin_3*%
%TO.N,Net-(J18-Pin_3)*%
X136347200Y-101629200D03*
%TO.P,J9,4,Pin_4*%
%TO.N,Net-(J18-Pin_4)*%
X136347200Y-99129200D03*
%TD*%
D12*
%TO.P,R2,1*%
%TO.N,Net-(D2-A)*%
X131724400Y-65328800D03*
D13*
%TO.P,R2,2*%
%TO.N,Net-(J2-Pin_36)*%
X124104400Y-65328800D03*
%TD*%
D12*
%TO.P,R4,1*%
%TO.N,Net-(J2-Pin_22)*%
X124053600Y-83822600D03*
D13*
%TO.P,R4,2*%
%TO.N,Net-(J10-Pin_4)*%
X131673600Y-83822600D03*
%TD*%
D10*
%TO.P,J15,1,Pin_1*%
%TO.N,Net-(J13-Pin_1)*%
X131523800Y-96418400D03*
D11*
%TO.P,J15,2,Pin_2*%
%TO.N,Net-(J13-Pin_2)*%
X131523800Y-98958400D03*
%TO.P,J15,3,Pin_3*%
%TO.N,Net-(J13-Pin_3)*%
X131523800Y-101498400D03*
%TO.P,J15,4,Pin_4*%
%TO.N,Net-(J13-Pin_4)*%
X131523800Y-104038400D03*
%TO.P,J15,5,Pin_5*%
%TO.N,Net-(J13-Pin_5)*%
X131523800Y-106578400D03*
%TO.P,J15,6,Pin_6*%
%TO.N,Net-(J13-Pin_6)*%
X131523800Y-109118400D03*
%TD*%
D12*
%TO.P,R5,1*%
%TO.N,Net-(J2-Pin_18)*%
X124053600Y-87872600D03*
D13*
%TO.P,R5,2*%
%TO.N,Net-(J10-Pin_2)*%
X131673600Y-87872600D03*
%TD*%
D10*
%TO.P,J2,1,Pin_1*%
%TO.N,Net-(J1-Pin_1)*%
X101447600Y-109169200D03*
D11*
%TO.P,J2,2,Pin_2*%
%TO.N,Net-(J10-Pin_3)*%
X103987600Y-109169200D03*
%TO.P,J2,3,Pin_3*%
%TO.N,Net-(J1-Pin_2)*%
X101447600Y-106629200D03*
%TO.P,J2,4,Pin_4*%
%TO.N,Net-(J2-Pin_4)*%
X103987600Y-106629200D03*
%TO.P,J2,5,Pin_5*%
%TO.N,Net-(J1-Pin_3)*%
X101447600Y-104089200D03*
%TO.P,J2,6,Pin_6*%
%TO.N,Net-(J2-Pin_6)*%
X103987600Y-104089200D03*
%TO.P,J2,7,Pin_7*%
%TO.N,Net-(J1-Pin_4)*%
X101447600Y-101549200D03*
%TO.P,J2,8,Pin_8*%
%TO.N,Net-(J2-Pin_8)*%
X103987600Y-101549200D03*
%TO.P,J2,9,Pin_9*%
%TO.N,Net-(J1-Pin_5)*%
X101447600Y-99009200D03*
%TO.P,J2,10,Pin_10*%
%TO.N,Net-(J2-Pin_10)*%
X103987600Y-99009200D03*
%TO.P,J2,11,Pin_11*%
%TO.N,Net-(J1-Pin_6)*%
X101447600Y-96469200D03*
%TO.P,J2,12,Pin_12*%
%TO.N,Net-(J2-Pin_12)*%
X103987600Y-96469200D03*
%TO.P,J2,13,Pin_13*%
%TO.N,Net-(J1-Pin_7)*%
X101447600Y-93929200D03*
%TO.P,J2,14,Pin_14*%
%TO.N,Net-(J2-Pin_14)*%
X103987600Y-93929200D03*
%TO.P,J2,15,Pin_15*%
%TO.N,Net-(J1-Pin_8)*%
X101447600Y-91389200D03*
%TO.P,J2,16,Pin_16*%
%TO.N,Net-(J2-Pin_16)*%
X103987600Y-91389200D03*
%TO.P,J2,17,Pin_17*%
%TO.N,Net-(J1-Pin_9)*%
X101447600Y-88849200D03*
%TO.P,J2,18,Pin_18*%
%TO.N,Net-(J2-Pin_18)*%
X103987600Y-88849200D03*
%TO.P,J2,19,Pin_19*%
%TO.N,Net-(J1-Pin_10)*%
X101447600Y-86309200D03*
%TO.P,J2,20,Pin_20*%
%TO.N,Net-(J2-Pin_20)*%
X103987600Y-86309200D03*
%TO.P,J2,21,Pin_21*%
%TO.N,Net-(J1-Pin_11)*%
X101447600Y-83769200D03*
%TO.P,J2,22,Pin_22*%
%TO.N,Net-(J2-Pin_22)*%
X103987600Y-83769200D03*
%TO.P,J2,23,Pin_23*%
%TO.N,Net-(J1-Pin_12)*%
X101447600Y-81229200D03*
%TO.P,J2,24,Pin_24*%
%TO.N,Net-(J2-Pin_24)*%
X103987600Y-81229200D03*
%TO.P,J2,25,Pin_25*%
%TO.N,Net-(J1-Pin_13)*%
X101447600Y-78689200D03*
%TO.P,J2,26,Pin_26*%
%TO.N,Net-(J2-Pin_26)*%
X103987600Y-78689200D03*
%TO.P,J2,27,Pin_27*%
%TO.N,Net-(J1-Pin_14)*%
X101447600Y-76149200D03*
%TO.P,J2,28,Pin_28*%
%TO.N,Net-(J2-Pin_28)*%
X103987600Y-76149200D03*
%TO.P,J2,29,Pin_29*%
%TO.N,Net-(G5-B)*%
X101447600Y-73609200D03*
%TO.P,J2,30,Pin_30*%
%TO.N,Net-(J2-Pin_30)*%
X103987600Y-73609200D03*
%TO.P,J2,31,Pin_31*%
%TO.N,Net-(J1-Pin_16)*%
X101447600Y-71069200D03*
%TO.P,J2,32,Pin_32*%
%TO.N,Net-(J2-Pin_32)*%
X103987600Y-71069200D03*
%TO.P,J2,33,Pin_33*%
%TO.N,Net-(J1-Pin_17)*%
X101447600Y-68529200D03*
%TO.P,J2,34,Pin_34*%
%TO.N,Net-(D1-K)*%
X103987600Y-68529200D03*
%TO.P,J2,35,Pin_35*%
%TO.N,Net-(J1-Pin_18)*%
X101447600Y-65989200D03*
%TO.P,J2,36,Pin_36*%
%TO.N,Net-(J2-Pin_36)*%
X103987600Y-65989200D03*
%TO.P,J2,37,Pin_37*%
%TO.N,Net-(J1-Pin_19)*%
X101447600Y-63449200D03*
%TO.P,J2,38,Pin_38*%
%TO.N,Net-(J2-Pin_38)*%
X103987600Y-63449200D03*
%TO.P,J2,39,Pin_39*%
%TO.N,Net-(J1-Pin_20)*%
X101447600Y-60909200D03*
%TO.P,J2,40,Pin_40*%
%TO.N,Net-(J2-Pin_40)*%
X103987600Y-60909200D03*
%TD*%
D14*
%TO.P,D2,1,K*%
%TO.N,Net-(D1-K)*%
X137444400Y-67233800D03*
D15*
%TO.P,D2,2,A*%
%TO.N,Net-(D2-A)*%
X134904400Y-67233800D03*
%TD*%
D10*
%TO.P,J4,1,Pin_1*%
%TO.N,Net-(J2-Pin_40)*%
X119862600Y-60883800D03*
D11*
%TO.P,J4,2,Pin_2*%
%TO.N,Net-(J2-Pin_38)*%
X119862600Y-63423800D03*
%TO.P,J4,3,Pin_3*%
%TO.N,Net-(J2-Pin_36)*%
X119862600Y-65963800D03*
%TO.P,J4,4,Pin_4*%
%TO.N,Net-(D1-K)*%
X119862600Y-68503800D03*
%TO.P,J4,5,Pin_5*%
%TO.N,Net-(J2-Pin_32)*%
X119862600Y-71043800D03*
%TO.P,J4,6,Pin_6*%
%TO.N,Net-(J2-Pin_30)*%
X119862600Y-73583800D03*
%TO.P,J4,7,Pin_7*%
%TO.N,Net-(J2-Pin_28)*%
X119862600Y-76123800D03*
%TO.P,J4,8,Pin_8*%
%TO.N,Net-(J2-Pin_26)*%
X119862600Y-78663800D03*
%TO.P,J4,9,Pin_9*%
%TO.N,Net-(J2-Pin_24)*%
X119862600Y-81203800D03*
%TO.P,J4,10,Pin_10*%
%TO.N,Net-(J2-Pin_22)*%
X119862600Y-83743800D03*
%TO.P,J4,11,Pin_11*%
%TO.N,Net-(J2-Pin_20)*%
X119862600Y-86283800D03*
%TO.P,J4,12,Pin_12*%
%TO.N,Net-(J2-Pin_18)*%
X119862600Y-88823800D03*
%TO.P,J4,13,Pin_13*%
%TO.N,Net-(J2-Pin_16)*%
X119862600Y-91363800D03*
%TO.P,J4,14,Pin_14*%
%TO.N,Net-(J2-Pin_14)*%
X119862600Y-93903800D03*
%TO.P,J4,15,Pin_15*%
%TO.N,Net-(J2-Pin_12)*%
X119862600Y-96443800D03*
%TO.P,J4,16,Pin_16*%
%TO.N,Net-(J2-Pin_10)*%
X119862600Y-98983800D03*
%TO.P,J4,17,Pin_17*%
%TO.N,Net-(J2-Pin_8)*%
X119862600Y-101523800D03*
%TO.P,J4,18,Pin_18*%
%TO.N,Net-(J2-Pin_6)*%
X119862600Y-104063800D03*
%TO.P,J4,19,Pin_19*%
%TO.N,Net-(J2-Pin_4)*%
X119862600Y-106603800D03*
%TO.P,J4,20,Pin_20*%
%TO.N,Net-(J10-Pin_3)*%
X119862600Y-109143800D03*
%TD*%
D10*
%TO.P,J17,1,Pin_1*%
%TO.N,Net-(J10-Pin_3)*%
X126898400Y-112928400D03*
D11*
%TO.P,J17,2,Pin_2*%
X129438400Y-112928400D03*
%TO.P,J17,3,Pin_3*%
X131978400Y-112928400D03*
%TO.P,J17,4,Pin_4*%
X134518400Y-112928400D03*
%TO.P,J17,5,Pin_5*%
X137058400Y-112928400D03*
%TO.P,J17,6,Pin_6*%
X139598400Y-112928400D03*
%TD*%
D10*
%TO.P,J11,1,Pin_1*%
%TO.N,Net-(J1-Pin_1)*%
X89486800Y-109160000D03*
D11*
%TO.P,J11,2,Pin_2*%
%TO.N,Net-(J1-Pin_2)*%
X89486800Y-106620000D03*
%TO.P,J11,3,Pin_3*%
%TO.N,Net-(J1-Pin_3)*%
X89486800Y-104080000D03*
%TO.P,J11,4,Pin_4*%
%TO.N,Net-(J1-Pin_4)*%
X89486800Y-101540000D03*
%TO.P,J11,5,Pin_5*%
%TO.N,Net-(J1-Pin_5)*%
X89486800Y-99000000D03*
%TO.P,J11,6,Pin_6*%
%TO.N,Net-(J1-Pin_6)*%
X89486800Y-96460000D03*
%TO.P,J11,7,Pin_7*%
%TO.N,Net-(J1-Pin_7)*%
X89486800Y-93920000D03*
%TO.P,J11,8,Pin_8*%
%TO.N,Net-(J1-Pin_8)*%
X89486800Y-91380000D03*
%TO.P,J11,9,Pin_9*%
%TO.N,Net-(J1-Pin_9)*%
X89486800Y-88840000D03*
%TO.P,J11,10,Pin_10*%
%TO.N,Net-(J1-Pin_10)*%
X89486800Y-86300000D03*
%TO.P,J11,11,Pin_11*%
%TO.N,Net-(J1-Pin_11)*%
X89486800Y-83760000D03*
%TO.P,J11,12,Pin_12*%
%TO.N,Net-(J1-Pin_12)*%
X89486800Y-81220000D03*
%TO.P,J11,13,Pin_13*%
%TO.N,Net-(J1-Pin_13)*%
X89486800Y-78680000D03*
%TO.P,J11,14,Pin_14*%
%TO.N,Net-(J1-Pin_14)*%
X89486800Y-76140000D03*
%TO.P,J11,15,Pin_15*%
%TO.N,Net-(G5-B)*%
X89486800Y-73600000D03*
%TO.P,J11,16,Pin_16*%
%TO.N,Net-(J1-Pin_16)*%
X89486800Y-71060000D03*
%TO.P,J11,17,Pin_17*%
%TO.N,Net-(J1-Pin_17)*%
X89486800Y-68520000D03*
%TO.P,J11,18,Pin_18*%
%TO.N,Net-(J1-Pin_18)*%
X89486800Y-65980000D03*
%TO.P,J11,19,Pin_19*%
%TO.N,Net-(J1-Pin_19)*%
X89486800Y-63440000D03*
%TO.P,J11,20,Pin_20*%
%TO.N,Net-(J1-Pin_20)*%
X89486800Y-60900000D03*
%TD*%
D10*
%TO.P,J12,1,Pin_1*%
%TO.N,Net-(J1-Pin_1)*%
X85877400Y-109160000D03*
D11*
%TO.P,J12,2,Pin_2*%
%TO.N,Net-(J1-Pin_2)*%
X85877400Y-106620000D03*
%TO.P,J12,3,Pin_3*%
%TO.N,Net-(J1-Pin_3)*%
X85877400Y-104080000D03*
%TO.P,J12,4,Pin_4*%
%TO.N,Net-(J1-Pin_4)*%
X85877400Y-101540000D03*
%TO.P,J12,5,Pin_5*%
%TO.N,Net-(J1-Pin_5)*%
X85877400Y-99000000D03*
%TO.P,J12,6,Pin_6*%
%TO.N,Net-(J1-Pin_6)*%
X85877400Y-96460000D03*
%TO.P,J12,7,Pin_7*%
%TO.N,Net-(J1-Pin_7)*%
X85877400Y-93920000D03*
%TO.P,J12,8,Pin_8*%
%TO.N,Net-(J1-Pin_8)*%
X85877400Y-91380000D03*
%TO.P,J12,9,Pin_9*%
%TO.N,Net-(J1-Pin_9)*%
X85877400Y-88840000D03*
%TO.P,J12,10,Pin_10*%
%TO.N,Net-(J1-Pin_10)*%
X85877400Y-86300000D03*
%TO.P,J12,11,Pin_11*%
%TO.N,Net-(J1-Pin_11)*%
X85877400Y-83760000D03*
%TO.P,J12,12,Pin_12*%
%TO.N,Net-(J1-Pin_12)*%
X85877400Y-81220000D03*
%TO.P,J12,13,Pin_13*%
%TO.N,Net-(J1-Pin_13)*%
X85877400Y-78680000D03*
%TO.P,J12,14,Pin_14*%
%TO.N,Net-(J1-Pin_14)*%
X85877400Y-76140000D03*
%TO.P,J12,15,Pin_15*%
%TO.N,Net-(G5-B)*%
X85877400Y-73600000D03*
%TO.P,J12,16,Pin_16*%
%TO.N,Net-(J1-Pin_16)*%
X85877400Y-71060000D03*
%TO.P,J12,17,Pin_17*%
%TO.N,Net-(J1-Pin_17)*%
X85877400Y-68520000D03*
%TO.P,J12,18,Pin_18*%
%TO.N,Net-(J1-Pin_18)*%
X85877400Y-65980000D03*
%TO.P,J12,19,Pin_19*%
%TO.N,Net-(J1-Pin_19)*%
X85877400Y-63440000D03*
%TO.P,J12,20,Pin_20*%
%TO.N,Net-(J1-Pin_20)*%
X85877400Y-60900000D03*
%TD*%
D10*
%TO.P,J1,1,Pin_1*%
%TO.N,Net-(J1-Pin_1)*%
X93091000Y-109169200D03*
D11*
%TO.P,J1,2,Pin_2*%
%TO.N,Net-(J1-Pin_2)*%
X93091000Y-106629200D03*
%TO.P,J1,3,Pin_3*%
%TO.N,Net-(J1-Pin_3)*%
X93091000Y-104089200D03*
%TO.P,J1,4,Pin_4*%
%TO.N,Net-(J1-Pin_4)*%
X93091000Y-101549200D03*
%TO.P,J1,5,Pin_5*%
%TO.N,Net-(J1-Pin_5)*%
X93091000Y-99009200D03*
%TO.P,J1,6,Pin_6*%
%TO.N,Net-(J1-Pin_6)*%
X93091000Y-96469200D03*
%TO.P,J1,7,Pin_7*%
%TO.N,Net-(J1-Pin_7)*%
X93091000Y-93929200D03*
%TO.P,J1,8,Pin_8*%
%TO.N,Net-(J1-Pin_8)*%
X93091000Y-91389200D03*
%TO.P,J1,9,Pin_9*%
%TO.N,Net-(J1-Pin_9)*%
X93091000Y-88849200D03*
%TO.P,J1,10,Pin_10*%
%TO.N,Net-(J1-Pin_10)*%
X93091000Y-86309200D03*
%TO.P,J1,11,Pin_11*%
%TO.N,Net-(J1-Pin_11)*%
X93091000Y-83769200D03*
%TO.P,J1,12,Pin_12*%
%TO.N,Net-(J1-Pin_12)*%
X93091000Y-81229200D03*
%TO.P,J1,13,Pin_13*%
%TO.N,Net-(J1-Pin_13)*%
X93091000Y-78689200D03*
%TO.P,J1,14,Pin_14*%
%TO.N,Net-(J1-Pin_14)*%
X93091000Y-76149200D03*
%TO.P,J1,15,Pin_15*%
%TO.N,Net-(G5-B)*%
X93091000Y-73609200D03*
%TO.P,J1,16,Pin_16*%
%TO.N,Net-(J1-Pin_16)*%
X93091000Y-71069200D03*
%TO.P,J1,17,Pin_17*%
%TO.N,Net-(J1-Pin_17)*%
X93091000Y-68529200D03*
%TO.P,J1,18,Pin_18*%
%TO.N,Net-(J1-Pin_18)*%
X93091000Y-65989200D03*
%TO.P,J1,19,Pin_19*%
%TO.N,Net-(J1-Pin_19)*%
X93091000Y-63449200D03*
%TO.P,J1,20,Pin_20*%
%TO.N,Net-(J1-Pin_20)*%
X93091000Y-60909200D03*
%TD*%
D10*
%TO.P,J8,1,Pin_1*%
%TO.N,Net-(J5-Pin_1)*%
X156870400Y-60960000D03*
D11*
%TO.P,J8,2,Pin_2*%
%TO.N,Net-(J5-Pin_2)*%
X156870400Y-63500000D03*
%TO.P,J8,3,Pin_3*%
%TO.N,Net-(J5-Pin_3)*%
X156870400Y-66040000D03*
%TO.P,J8,4,Pin_4*%
%TO.N,Net-(J10-Pin_3)*%
X156870400Y-68580000D03*
%TO.P,J8,5,Pin_5*%
%TO.N,Net-(J5-Pin_5)*%
X156870400Y-71120000D03*
%TO.P,J8,6,Pin_6*%
%TO.N,Net-(J2-Pin_8)*%
X156870400Y-73660000D03*
%TO.P,J8,7,Pin_7*%
%TO.N,Net-(J2-Pin_10)*%
X156870400Y-76200000D03*
%TO.P,J8,8,Pin_8*%
%TO.N,Net-(J5-Pin_8)*%
X156870400Y-78740000D03*
%TO.P,J8,9,Pin_9*%
%TO.N,Net-(J5-Pin_9)*%
X156870400Y-81280000D03*
%TO.P,J8,10,Pin_10*%
%TO.N,Net-(J5-Pin_10)*%
X156870400Y-83820000D03*
%TO.P,J8,11,Pin_11*%
%TO.N,Net-(G5-A)*%
X156870400Y-86360000D03*
%TO.P,J8,12,Pin_12*%
%TO.N,Net-(J5-Pin_12)*%
X156870400Y-88900000D03*
%TO.P,J8,13,Pin_13*%
%TO.N,Net-(J5-Pin_13)*%
X156870400Y-91440000D03*
%TO.P,J8,14,Pin_14*%
%TO.N,Net-(J5-Pin_14)*%
X156870400Y-93980000D03*
%TO.P,J8,15,Pin_15*%
%TO.N,Net-(J18-Pin_4)*%
X156870400Y-96520000D03*
%TO.P,J8,16,Pin_16*%
%TO.N,Net-(J18-Pin_3)*%
X156870400Y-99060000D03*
%TO.P,J8,17,Pin_17*%
%TO.N,Net-(J18-Pin_2)*%
X156870400Y-101600000D03*
%TO.P,J8,18,Pin_18*%
%TO.N,Net-(J18-Pin_1)*%
X156870400Y-104140000D03*
%TD*%
D16*
%TO.P,J10,1,Pin_1*%
%TO.N,Net-(J10-Pin_1)*%
X136347200Y-91929600D03*
D17*
%TO.P,J10,2,Pin_2*%
%TO.N,Net-(J10-Pin_2)*%
X136347200Y-89429600D03*
%TO.P,J10,3,Pin_3*%
%TO.N,Net-(J10-Pin_3)*%
X136347200Y-86929600D03*
%TO.P,J10,4,Pin_4*%
%TO.N,Net-(J10-Pin_4)*%
X136347200Y-84429600D03*
%TD*%
D10*
%TO.P,J16,1,Pin_1*%
%TO.N,Net-(D1-K)*%
X124561600Y-78689200D03*
D11*
%TO.P,J16,2,Pin_2*%
X127101600Y-78689200D03*
%TO.P,J16,3,Pin_3*%
X129641600Y-78689200D03*
%TO.P,J16,4,Pin_4*%
X132181600Y-78689200D03*
%TO.P,J16,5,Pin_5*%
X134721600Y-78689200D03*
%TO.P,J16,6,Pin_6*%
X137261600Y-78689200D03*
%TD*%
D10*
%TO.P,J3,1,Pin_1*%
%TO.N,Net-(J2-Pin_40)*%
X112649000Y-60960000D03*
D11*
%TO.P,J3,2,Pin_2*%
%TO.N,Net-(J2-Pin_38)*%
X112649000Y-63500000D03*
%TO.P,J3,3,Pin_3*%
%TO.N,Net-(J2-Pin_36)*%
X112649000Y-66040000D03*
%TO.P,J3,4,Pin_4*%
%TO.N,Net-(D1-K)*%
X112649000Y-68580000D03*
%TO.P,J3,5,Pin_5*%
%TO.N,Net-(J2-Pin_32)*%
X112649000Y-71120000D03*
%TO.P,J3,6,Pin_6*%
%TO.N,Net-(J2-Pin_30)*%
X112649000Y-73660000D03*
%TO.P,J3,7,Pin_7*%
%TO.N,Net-(J2-Pin_28)*%
X112649000Y-76200000D03*
%TO.P,J3,8,Pin_8*%
%TO.N,Net-(J2-Pin_26)*%
X112649000Y-78740000D03*
%TO.P,J3,9,Pin_9*%
%TO.N,Net-(J2-Pin_24)*%
X112649000Y-81280000D03*
%TO.P,J3,10,Pin_10*%
%TO.N,Net-(J2-Pin_22)*%
X112649000Y-83820000D03*
%TO.P,J3,11,Pin_11*%
%TO.N,Net-(J2-Pin_20)*%
X112649000Y-86360000D03*
%TO.P,J3,12,Pin_12*%
%TO.N,Net-(J2-Pin_18)*%
X112649000Y-88900000D03*
%TO.P,J3,13,Pin_13*%
%TO.N,Net-(J2-Pin_16)*%
X112649000Y-91440000D03*
%TO.P,J3,14,Pin_14*%
%TO.N,Net-(J2-Pin_14)*%
X112649000Y-93980000D03*
%TO.P,J3,15,Pin_15*%
%TO.N,Net-(J2-Pin_12)*%
X112649000Y-96520000D03*
%TO.P,J3,16,Pin_16*%
%TO.N,Net-(J2-Pin_10)*%
X112649000Y-99060000D03*
%TO.P,J3,17,Pin_17*%
%TO.N,Net-(J2-Pin_8)*%
X112649000Y-101600000D03*
%TO.P,J3,18,Pin_18*%
%TO.N,Net-(J2-Pin_6)*%
X112649000Y-104140000D03*
%TO.P,J3,19,Pin_19*%
%TO.N,Net-(J2-Pin_4)*%
X112649000Y-106680000D03*
%TO.P,J3,20,Pin_20*%
%TO.N,Net-(J10-Pin_3)*%
X112649000Y-109220000D03*
%TD*%
D10*
%TO.P,J7,1,Pin_1*%
%TO.N,Net-(J2-Pin_40)*%
X116230400Y-60883800D03*
D11*
%TO.P,J7,2,Pin_2*%
%TO.N,Net-(J2-Pin_38)*%
X116230400Y-63423800D03*
%TO.P,J7,3,Pin_3*%
%TO.N,Net-(J2-Pin_36)*%
X116230400Y-65963800D03*
%TO.P,J7,4,Pin_4*%
%TO.N,Net-(D1-K)*%
X116230400Y-68503800D03*
%TO.P,J7,5,Pin_5*%
%TO.N,Net-(J2-Pin_32)*%
X116230400Y-71043800D03*
%TO.P,J7,6,Pin_6*%
%TO.N,Net-(J2-Pin_30)*%
X116230400Y-73583800D03*
%TO.P,J7,7,Pin_7*%
%TO.N,Net-(J2-Pin_28)*%
X116230400Y-76123800D03*
%TO.P,J7,8,Pin_8*%
%TO.N,Net-(J2-Pin_26)*%
X116230400Y-78663800D03*
%TO.P,J7,9,Pin_9*%
%TO.N,Net-(J2-Pin_24)*%
X116230400Y-81203800D03*
%TO.P,J7,10,Pin_10*%
%TO.N,Net-(J2-Pin_22)*%
X116230400Y-83743800D03*
%TO.P,J7,11,Pin_11*%
%TO.N,Net-(J2-Pin_20)*%
X116230400Y-86283800D03*
%TO.P,J7,12,Pin_12*%
%TO.N,Net-(J2-Pin_18)*%
X116230400Y-88823800D03*
%TO.P,J7,13,Pin_13*%
%TO.N,Net-(J2-Pin_16)*%
X116230400Y-91363800D03*
%TO.P,J7,14,Pin_14*%
%TO.N,Net-(J2-Pin_14)*%
X116230400Y-93903800D03*
%TO.P,J7,15,Pin_15*%
%TO.N,Net-(J2-Pin_12)*%
X116230400Y-96443800D03*
%TO.P,J7,16,Pin_16*%
%TO.N,Net-(J2-Pin_10)*%
X116230400Y-98983800D03*
%TO.P,J7,17,Pin_17*%
%TO.N,Net-(J2-Pin_8)*%
X116230400Y-101523800D03*
%TO.P,J7,18,Pin_18*%
%TO.N,Net-(J2-Pin_6)*%
X116230400Y-104063800D03*
%TO.P,J7,19,Pin_19*%
%TO.N,Net-(J2-Pin_4)*%
X116230400Y-106603800D03*
%TO.P,J7,20,Pin_20*%
%TO.N,Net-(J10-Pin_3)*%
X116230400Y-109143800D03*
%TD*%
D14*
%TO.P,D1,1,K*%
%TO.N,Net-(D1-K)*%
X137414000Y-61468000D03*
D15*
%TO.P,D1,2,A*%
%TO.N,Net-(D1-A)*%
X134874000Y-61468000D03*
%TD*%
D10*
%TO.P,J14,1,Pin_1*%
%TO.N,Net-(J13-Pin_1)*%
X127967800Y-96418400D03*
D11*
%TO.P,J14,2,Pin_2*%
%TO.N,Net-(J13-Pin_2)*%
X127967800Y-98958400D03*
%TO.P,J14,3,Pin_3*%
%TO.N,Net-(J13-Pin_3)*%
X127967800Y-101498400D03*
%TO.P,J14,4,Pin_4*%
%TO.N,Net-(J13-Pin_4)*%
X127967800Y-104038400D03*
%TO.P,J14,5,Pin_5*%
%TO.N,Net-(J13-Pin_5)*%
X127967800Y-106578400D03*
%TO.P,J14,6,Pin_6*%
%TO.N,Net-(J13-Pin_6)*%
X127967800Y-109118400D03*
%TD*%
D18*
%TO.P,J18,1,Pin_1*%
%TO.N,Net-(J18-Pin_1)*%
X147167600Y-111201200D03*
D19*
%TO.P,J18,2,Pin_2*%
%TO.N,Net-(J18-Pin_2)*%
X150667600Y-111201200D03*
%TO.P,J18,3,Pin_3*%
%TO.N,Net-(J18-Pin_3)*%
X154167600Y-111201200D03*
%TO.P,J18,4,Pin_4*%
%TO.N,Net-(J18-Pin_4)*%
X157667600Y-111201200D03*
%TD*%
D20*
%TO.N,Net-(J10-Pin_3)*%
X139598400Y-112928400D02*
X138220000Y-112928400D01*
X138220000Y-112928400D02*
X137058400Y-112928400D01*
X147955000Y-68554600D02*
X149580000Y-70179600D01*
X149580000Y-70179600D02*
X149580000Y-104180000D01*
X149580000Y-104180000D02*
X140831600Y-112928400D01*
X140831600Y-112928400D02*
X138220000Y-112928400D01*
X139598400Y-112928400D02*
X139598400Y-90180800D01*
X139598400Y-90180800D02*
X136347200Y-86929600D01*
%TO.N,Net-(J2-Pin_10)*%
X145495609Y-72459600D02*
X148441701Y-72459600D01*
X149130000Y-74999600D02*
X147955000Y-76174600D01*
X149130000Y-73147899D02*
X149130000Y-74999600D01*
X130548600Y-87903600D02*
X130548600Y-87406609D01*
X130548600Y-87406609D02*
X145495609Y-72459600D01*
X148441701Y-72459600D02*
X149130000Y-73147899D01*
X119862600Y-98589600D02*
X130548600Y-87903600D01*
%TO.N,Net-(J2-Pin_8)*%
X147955000Y-73634600D02*
X145846800Y-75742800D01*
X123603000Y-97783400D02*
X119862600Y-101523800D01*
X145846800Y-76716701D02*
X136958901Y-85604600D01*
X135940800Y-85604600D02*
X135885499Y-85604600D01*
X125482600Y-97783400D02*
X123603000Y-97783400D01*
X126792800Y-94697299D02*
X126792800Y-96473200D01*
X126792800Y-96473200D02*
X125482600Y-97783400D01*
X145846800Y-75742800D02*
X145846800Y-76716701D01*
X135885499Y-85604600D02*
X126792800Y-94697299D01*
X136958901Y-85604600D02*
X135940800Y-85604600D01*
X135940800Y-85604600D02*
X135832600Y-85604600D01*
%TO.N,Net-(J10-Pin_3)*%
X134518400Y-112928400D02*
X131978400Y-112928400D01*
X131978400Y-112928400D02*
X129438400Y-112928400D01*
X129438400Y-112928400D02*
X126898400Y-112928400D01*
X137058400Y-112928400D02*
X134518400Y-112928400D01*
X126898400Y-112928400D02*
X123647200Y-112928400D01*
X123647200Y-112928400D02*
X119862600Y-109143800D01*
%TD*%
M02*
