M48
; DRILL file {KiCad 7.0.5-0} date 2023 October 02, Monday 00:08:39
; FORMAT={-:-/ absolute / inch / decimal}
; #@! TF.CreationDate,2023-10-02T00:08:39-07:00
; #@! TF.GenerationSoftware,Kicad,Pcbnew,7.0.5-0
; #@! TF.FileFunction,Plated,1,2,PTH
FMAT,2
INCH
; #@! TA.AperFunction,Plated,PTH,ComponentDrill
T1C0.0315
; #@! TA.AperFunction,Plated,PTH,ComponentDrill
T2C0.0354
; #@! TA.AperFunction,Plated,PTH,ComponentDrill
T3C0.0374
; #@! TA.AperFunction,Plated,PTH,ComponentDrill
T4C0.0394
; #@! TA.AperFunction,Plated,PTH,ComponentDrill
T5C0.0630
%
G90
G05
T1
X4.884Y-3.3001
X4.884Y-3.4596
X4.884Y-3.619
X4.886Y-2.397
X4.886Y-2.572
X4.886Y-2.747
X5.184Y-3.3001
X5.184Y-3.4596
X5.184Y-3.619
X5.186Y-2.397
X5.186Y-2.572
X5.186Y-2.747
T2
X5.31Y-2.42
X5.311Y-2.872
X5.3112Y-2.647
X5.41Y-2.42
X5.411Y-2.872
X5.4112Y-2.647
T3
X5.368Y-3.324
X5.368Y-3.4224
X5.368Y-3.5209
X5.368Y-3.6193
X5.368Y-3.9027
X5.368Y-4.0011
X5.368Y-4.0996
X5.368Y-4.198
T4
X3.381Y-2.3976
X3.381Y-2.4976
X3.381Y-2.5976
X3.381Y-2.6976
X3.381Y-2.7976
X3.381Y-2.8976
X3.381Y-2.9976
X3.381Y-3.0976
X3.381Y-3.1976
X3.381Y-3.2976
X3.381Y-3.3976
X3.381Y-3.4976
X3.381Y-3.5976
X3.381Y-3.6976
X3.381Y-3.7976
X3.381Y-3.8976
X3.381Y-3.9976
X3.381Y-4.0976
X3.381Y-4.1976
X3.381Y-4.2976
X3.5231Y-2.3976
X3.5231Y-2.4976
X3.5231Y-2.5976
X3.5231Y-2.6976
X3.5231Y-2.7976
X3.5231Y-2.8976
X3.5231Y-2.9976
X3.5231Y-3.0976
X3.5231Y-3.1976
X3.5231Y-3.2976
X3.5231Y-3.3976
X3.5231Y-3.4976
X3.5231Y-3.5976
X3.5231Y-3.6976
X3.5231Y-3.7976
X3.5231Y-3.8976
X3.5231Y-3.9976
X3.5231Y-4.0976
X3.5231Y-4.1976
X3.5231Y-4.2976
X3.665Y-2.398
X3.665Y-2.498
X3.665Y-2.598
X3.665Y-2.698
X3.665Y-2.798
X3.665Y-2.898
X3.665Y-2.998
X3.665Y-3.098
X3.665Y-3.198
X3.665Y-3.298
X3.665Y-3.398
X3.665Y-3.498
X3.665Y-3.598
X3.665Y-3.698
X3.665Y-3.798
X3.665Y-3.898
X3.665Y-3.998
X3.665Y-4.098
X3.665Y-4.198
X3.665Y-4.298
X3.994Y-2.398
X3.994Y-2.498
X3.994Y-2.598
X3.994Y-2.698
X3.994Y-2.798
X3.994Y-2.898
X3.994Y-2.998
X3.994Y-3.098
X3.994Y-3.198
X3.994Y-3.298
X3.994Y-3.398
X3.994Y-3.498
X3.994Y-3.598
X3.994Y-3.698
X3.994Y-3.798
X3.994Y-3.898
X3.994Y-3.998
X3.994Y-4.098
X3.994Y-4.198
X3.994Y-4.298
X4.094Y-2.398
X4.094Y-2.498
X4.094Y-2.598
X4.094Y-2.698
X4.094Y-2.798
X4.094Y-2.898
X4.094Y-2.998
X4.094Y-3.098
X4.094Y-3.198
X4.094Y-3.298
X4.094Y-3.398
X4.094Y-3.498
X4.094Y-3.598
X4.094Y-3.698
X4.094Y-3.798
X4.094Y-3.898
X4.094Y-3.998
X4.094Y-4.098
X4.094Y-4.198
X4.094Y-4.298
X4.4354Y-2.3992
X4.4354Y-2.4992
X4.4354Y-2.5992
X4.4354Y-2.6992
X4.4354Y-2.7992
X4.4354Y-2.8992
X4.4354Y-2.9992
X4.4354Y-3.0992
X4.4354Y-3.1992
X4.4354Y-3.2992
X4.4354Y-3.3992
X4.4354Y-3.4992
X4.4354Y-3.5992
X4.4354Y-3.6992
X4.4354Y-3.7992
X4.4354Y-3.8992
X4.4354Y-3.9992
X4.4354Y-4.0992
X4.4354Y-4.1992
X4.4354Y-4.2992
X4.576Y-2.397
X4.576Y-2.497
X4.576Y-2.597
X4.576Y-2.697
X4.576Y-2.797
X4.576Y-2.897
X4.576Y-2.997
X4.576Y-3.097
X4.576Y-3.197
X4.576Y-3.297
X4.576Y-3.397
X4.576Y-3.497
X4.576Y-3.597
X4.576Y-3.697
X4.576Y-3.797
X4.576Y-3.897
X4.576Y-3.997
X4.576Y-4.097
X4.576Y-4.197
X4.576Y-4.297
X4.719Y-2.397
X4.719Y-2.497
X4.719Y-2.597
X4.719Y-2.697
X4.719Y-2.797
X4.719Y-2.897
X4.719Y-2.997
X4.719Y-3.097
X4.719Y-3.197
X4.719Y-3.297
X4.719Y-3.397
X4.719Y-3.497
X4.719Y-3.597
X4.719Y-3.697
X4.719Y-3.797
X4.719Y-3.897
X4.719Y-3.997
X4.719Y-4.097
X4.719Y-4.197
X4.719Y-4.297
X4.897Y-3.796
X4.897Y-3.896
X4.897Y-3.996
X4.897Y-4.096
X4.897Y-4.196
X4.897Y-4.296
X4.8976Y-3.0972
X4.996Y-4.446
X4.9976Y-3.0972
X5.0381Y-3.796
X5.0381Y-3.896
X5.0381Y-3.996
X5.0381Y-4.096
X5.0381Y-4.196
X5.0381Y-4.296
X5.096Y-4.446
X5.0976Y-3.0972
X5.1781Y-3.796
X5.1781Y-3.896
X5.1781Y-3.996
X5.1781Y-4.096
X5.1781Y-4.196
X5.1781Y-4.296
X5.196Y-4.446
X5.1976Y-3.0972
X5.296Y-4.446
X5.2976Y-3.0972
X5.396Y-4.446
X5.3976Y-3.0972
X5.496Y-4.446
X5.5382Y-2.4
X5.5382Y-2.5
X5.5382Y-2.6
X5.5382Y-2.7
X5.5382Y-2.8
X5.5382Y-2.9
X5.5382Y-3.0
X5.5382Y-3.1
X5.6815Y-2.4
X5.6815Y-2.5
X5.6815Y-2.6
X5.6815Y-2.7
X5.6815Y-2.8
X5.6815Y-2.9
X5.6815Y-3.0
X5.6815Y-3.1
X5.825Y-2.4
X5.825Y-2.5
X5.825Y-2.6
X5.825Y-2.7
X5.825Y-2.8
X5.825Y-2.9
X5.825Y-3.0
X5.825Y-3.1
X5.825Y-3.2
X5.825Y-3.3
X5.825Y-3.4
X5.825Y-3.5
X5.825Y-3.6
X5.825Y-3.7
X5.825Y-3.8
X5.825Y-3.9
X5.825Y-4.0
X5.825Y-4.1
X6.0331Y-2.4
X6.0331Y-2.5
X6.0331Y-2.6
X6.0331Y-2.7
X6.0331Y-2.8
X6.0331Y-2.9
X6.0331Y-3.0
X6.0331Y-3.1
X6.0331Y-3.2
X6.0331Y-3.3
X6.0331Y-3.4
X6.0331Y-3.5
X6.0331Y-3.6
X6.0331Y-3.7
X6.0331Y-3.8
X6.0331Y-3.9
X6.0331Y-4.0
X6.0331Y-4.1
X6.176Y-2.4
X6.176Y-2.5
X6.176Y-2.6
X6.176Y-2.7
X6.176Y-2.8
X6.176Y-2.9
X6.176Y-3.0
X6.176Y-3.1
X6.176Y-3.2
X6.176Y-3.3
X6.176Y-3.4
X6.176Y-3.5
X6.176Y-3.6
X6.176Y-3.7
X6.176Y-3.8
X6.176Y-3.9
X6.176Y-4.0
X6.176Y-4.1
T5
X5.794Y-4.378
X5.9318Y-4.378
X6.0696Y-4.378
X6.2074Y-4.378
T0
M30
