%TF.GenerationSoftware,KiCad,Pcbnew,7.0.5-0*%
%TF.CreationDate,2023-10-01T14:36:37-07:00*%
%TF.ProjectId,FONA_pi,464f4e41-5f70-4692-9e6b-696361645f70,rev?*%
%TF.SameCoordinates,Original*%
%TF.FileFunction,Copper,L1,Top*%
%TF.FilePolarity,Positive*%
%FSLAX46Y46*%
G04 Gerber Fmt 4.6, Leading zero omitted, Abs format (unit mm)*
G04 Created by KiCad (PCBNEW 7.0.5-0) date 2023-10-01 14:36:37*
%MOMM*%
%LPD*%
G01*
G04 APERTURE LIST*
G04 Aperture macros list*
%AMRoundRect*
0 Rectangle with rounded corners*
0 $1 Rounding radius*
0 $2 $3 $4 $5 $6 $7 $8 $9 X,Y pos of 4 corners*
0 Add a 4 corners polygon primitive as box body*
4,1,4,$2,$3,$4,$5,$6,$7,$8,$9,$2,$3,0*
0 Add four circle primitives for the rounded corners*
1,1,$1+$1,$2,$3*
1,1,$1+$1,$4,$5*
1,1,$1+$1,$6,$7*
1,1,$1+$1,$8,$9*
0 Add four rect primitives between the rounded corners*
20,1,$1+$1,$2,$3,$4,$5,0*
20,1,$1+$1,$4,$5,$6,$7,0*
20,1,$1+$1,$6,$7,$8,$9,0*
20,1,$1+$1,$8,$9,$2,$3,0*%
%AMFreePoly0*
4,1,19,0.500000,-0.750000,0.000000,-0.750000,0.000000,-0.744911,-0.071157,-0.744911,-0.207708,-0.704816,-0.327430,-0.627875,-0.420627,-0.520320,-0.479746,-0.390866,-0.500000,-0.250000,-0.500000,0.250000,-0.479746,0.390866,-0.420627,0.520320,-0.327430,0.627875,-0.207708,0.704816,-0.071157,0.744911,0.000000,0.744911,0.000000,0.750000,0.500000,0.750000,0.500000,-0.750000,0.500000,-0.750000,
$1*%
%AMFreePoly1*
4,1,19,0.000000,0.744911,0.071157,0.744911,0.207708,0.704816,0.327430,0.627875,0.420627,0.520320,0.479746,0.390866,0.500000,0.250000,0.500000,-0.250000,0.479746,-0.390866,0.420627,-0.520320,0.327430,-0.627875,0.207708,-0.704816,0.071157,-0.744911,0.000000,-0.744911,0.000000,-0.750000,-0.500000,-0.750000,-0.500000,0.750000,0.000000,0.750000,0.000000,0.744911,0.000000,0.744911,
$1*%
G04 Aperture macros list end*
%TA.AperFunction,ComponentPad*%
%ADD10R,1.700000X1.700000*%
%TD*%
%TA.AperFunction,ComponentPad*%
%ADD11O,1.700000X1.700000*%
%TD*%
%TA.AperFunction,ComponentPad*%
%ADD12C,1.600000*%
%TD*%
%TA.AperFunction,ComponentPad*%
%ADD13O,1.600000X1.600000*%
%TD*%
%TA.AperFunction,SMDPad,CuDef*%
%ADD14FreePoly0,180.000000*%
%TD*%
%TA.AperFunction,SMDPad,CuDef*%
%ADD15FreePoly1,180.000000*%
%TD*%
%TA.AperFunction,ComponentPad*%
%ADD16R,1.800000X1.800000*%
%TD*%
%TA.AperFunction,ComponentPad*%
%ADD17C,1.800000*%
%TD*%
%TA.AperFunction,ComponentPad*%
%ADD18RoundRect,0.250000X0.725000X-0.600000X0.725000X0.600000X-0.725000X0.600000X-0.725000X-0.600000X0*%
%TD*%
%TA.AperFunction,ComponentPad*%
%ADD19O,1.950000X1.700000*%
%TD*%
%TA.AperFunction,ComponentPad*%
%ADD20RoundRect,0.250000X-0.750000X-1.050000X0.750000X-1.050000X0.750000X1.050000X-0.750000X1.050000X0*%
%TD*%
%TA.AperFunction,ComponentPad*%
%ADD21O,2.000000X2.600000*%
%TD*%
%TA.AperFunction,Conductor*%
%ADD22C,0.250000*%
%TD*%
%TA.AperFunction,Conductor*%
%ADD23C,0.508000*%
%TD*%
G04 APERTURE END LIST*
%TA.AperFunction,EtchedComponent*%
%TO.C,JP2*%
G36*
X144359200Y-89064533D02*
G01*
X143859200Y-89064533D01*
X143859200Y-88464533D01*
X144359200Y-88464533D01*
X144359200Y-89064533D01*
G37*
%TD.AperFunction*%
%TA.AperFunction,EtchedComponent*%
%TO.C,G5*%
G36*
X144359200Y-86406000D02*
G01*
X143859200Y-86406000D01*
X143859200Y-85806000D01*
X144359200Y-85806000D01*
X144359200Y-86406000D01*
G37*
%TD.AperFunction*%
%TA.AperFunction,EtchedComponent*%
%TO.C,JP4*%
G36*
X144359200Y-94381600D02*
G01*
X143859200Y-94381600D01*
X143859200Y-93781600D01*
X144359200Y-93781600D01*
X144359200Y-94381600D01*
G37*
%TD.AperFunction*%
%TA.AperFunction,EtchedComponent*%
%TO.C,JP3*%
G36*
X144359200Y-91723066D02*
G01*
X143859200Y-91723066D01*
X143859200Y-91123066D01*
X144359200Y-91123066D01*
X144359200Y-91723066D01*
G37*
%TD.AperFunction*%
%TD*%
D10*
%TO.P,J5,1,Pin_1*%
%TO.N,Net-(J5-Pin_1)*%
X147955000Y-60934600D03*
D11*
%TO.P,J5,2,Pin_2*%
%TO.N,Net-(J5-Pin_2)*%
X147955000Y-63474600D03*
%TO.P,J5,3,Pin_3*%
%TO.N,Net-(J5-Pin_3)*%
X147955000Y-66014600D03*
%TO.P,J5,4,Pin_4*%
%TO.N,Net-(J10-Pin_3)*%
X147955000Y-68554600D03*
%TO.P,J5,5,Pin_5*%
%TO.N,Net-(J5-Pin_5)*%
X147955000Y-71094600D03*
%TO.P,J5,6,Pin_6*%
%TO.N,Net-(J2-Pin_8)*%
X147955000Y-73634600D03*
%TO.P,J5,7,Pin_7*%
%TO.N,Net-(J2-Pin_10)*%
X147955000Y-76174600D03*
%TO.P,J5,8,Pin_8*%
%TO.N,Net-(J5-Pin_8)*%
X147955000Y-78714600D03*
%TO.P,J5,9,Pin_9*%
%TO.N,Net-(J5-Pin_9)*%
X147955000Y-81254600D03*
%TO.P,J5,10,Pin_10*%
%TO.N,Net-(J5-Pin_10)*%
X147955000Y-83794600D03*
%TO.P,J5,11,Pin_11*%
%TO.N,Net-(G5-A)*%
X147955000Y-86334600D03*
%TO.P,J5,12,Pin_12*%
%TO.N,Net-(J5-Pin_12)*%
X147955000Y-88874600D03*
%TO.P,J5,13,Pin_13*%
%TO.N,Net-(J5-Pin_13)*%
X147955000Y-91414600D03*
%TO.P,J5,14,Pin_14*%
%TO.N,Net-(J5-Pin_14)*%
X147955000Y-93954600D03*
%TO.P,J5,15,Pin_15*%
%TO.N,Net-(J18-Pin_4)*%
X147955000Y-96494600D03*
%TO.P,J5,16,Pin_16*%
%TO.N,Net-(J18-Pin_3)*%
X147955000Y-99034600D03*
%TO.P,J5,17,Pin_17*%
%TO.N,Net-(J18-Pin_2)*%
X147955000Y-101574600D03*
%TO.P,J5,18,Pin_18*%
%TO.N,Net-(J18-Pin_1)*%
X147955000Y-104114600D03*
%TD*%
D12*
%TO.P,R1,1*%
%TO.N,Net-(J1-Pin_16)*%
X124104400Y-69773800D03*
D13*
%TO.P,R1,2*%
%TO.N,Net-(D3-A)*%
X131724400Y-69773800D03*
%TD*%
D10*
%TO.P,J13,1,Pin_1*%
%TO.N,Net-(J13-Pin_1)*%
X124383800Y-96418400D03*
D11*
%TO.P,J13,2,Pin_2*%
%TO.N,Net-(J13-Pin_2)*%
X124383800Y-98958400D03*
%TO.P,J13,3,Pin_3*%
%TO.N,Net-(J13-Pin_3)*%
X124383800Y-101498400D03*
%TO.P,J13,4,Pin_4*%
%TO.N,Net-(J13-Pin_4)*%
X124383800Y-104038400D03*
%TO.P,J13,5,Pin_5*%
%TO.N,Net-(J13-Pin_5)*%
X124383800Y-106578400D03*
%TO.P,J13,6,Pin_6*%
%TO.N,Net-(J13-Pin_6)*%
X124383800Y-109118400D03*
%TD*%
D14*
%TO.P,JP2,1,A*%
%TO.N,Net-(J5-Pin_12)*%
X144759200Y-88764533D03*
D15*
%TO.P,JP2,2,B*%
%TO.N,Net-(J1-Pin_8)*%
X143459200Y-88764533D03*
%TD*%
D10*
%TO.P,J6,1,Pin_1*%
%TO.N,Net-(J5-Pin_1)*%
X153286400Y-60960000D03*
D11*
%TO.P,J6,2,Pin_2*%
%TO.N,Net-(J5-Pin_2)*%
X153286400Y-63500000D03*
%TO.P,J6,3,Pin_3*%
%TO.N,Net-(J5-Pin_3)*%
X153286400Y-66040000D03*
%TO.P,J6,4,Pin_4*%
%TO.N,Net-(J10-Pin_3)*%
X153286400Y-68580000D03*
%TO.P,J6,5,Pin_5*%
%TO.N,Net-(J5-Pin_5)*%
X153286400Y-71120000D03*
%TO.P,J6,6,Pin_6*%
%TO.N,Net-(J2-Pin_8)*%
X153286400Y-73660000D03*
%TO.P,J6,7,Pin_7*%
%TO.N,Net-(J2-Pin_10)*%
X153286400Y-76200000D03*
%TO.P,J6,8,Pin_8*%
%TO.N,Net-(J5-Pin_8)*%
X153286400Y-78740000D03*
%TO.P,J6,9,Pin_9*%
%TO.N,Net-(J5-Pin_9)*%
X153286400Y-81280000D03*
%TO.P,J6,10,Pin_10*%
%TO.N,Net-(J5-Pin_10)*%
X153286400Y-83820000D03*
%TO.P,J6,11,Pin_11*%
%TO.N,Net-(G5-A)*%
X153286400Y-86360000D03*
%TO.P,J6,12,Pin_12*%
%TO.N,Net-(J5-Pin_12)*%
X153286400Y-88900000D03*
%TO.P,J6,13,Pin_13*%
%TO.N,Net-(J5-Pin_13)*%
X153286400Y-91440000D03*
%TO.P,J6,14,Pin_14*%
%TO.N,Net-(J5-Pin_14)*%
X153286400Y-93980000D03*
%TO.P,J6,15,Pin_15*%
%TO.N,Net-(J18-Pin_4)*%
X153286400Y-96520000D03*
%TO.P,J6,16,Pin_16*%
%TO.N,Net-(J18-Pin_3)*%
X153286400Y-99060000D03*
%TO.P,J6,17,Pin_17*%
%TO.N,Net-(J18-Pin_2)*%
X153286400Y-101600000D03*
%TO.P,J6,18,Pin_18*%
%TO.N,Net-(J18-Pin_1)*%
X153286400Y-104140000D03*
%TD*%
D12*
%TO.P,R6,1*%
%TO.N,Net-(J2-Pin_16)*%
X124053600Y-91922600D03*
D13*
%TO.P,R6,2*%
%TO.N,Net-(J10-Pin_1)*%
X131673600Y-91922600D03*
%TD*%
D16*
%TO.P,D3,1,K*%
%TO.N,Net-(D1-K)*%
X137439400Y-72948800D03*
D17*
%TO.P,D3,2,A*%
%TO.N,Net-(D3-A)*%
X134899400Y-72948800D03*
%TD*%
D14*
%TO.P,G5,1,A*%
%TO.N,Net-(G5-A)*%
X144759200Y-86106000D03*
D15*
%TO.P,G5,2,B*%
%TO.N,Net-(G5-B)*%
X143459200Y-86106000D03*
%TD*%
D12*
%TO.P,R3,1*%
%TO.N,Net-(J1-Pin_19)*%
X124104400Y-60883800D03*
D13*
%TO.P,R3,2*%
%TO.N,Net-(D1-A)*%
X131724400Y-60883800D03*
%TD*%
D18*
%TO.P,J9,1,Pin_1*%
%TO.N,Net-(J18-Pin_1)*%
X136347200Y-106629200D03*
D19*
%TO.P,J9,2,Pin_2*%
%TO.N,Net-(J18-Pin_2)*%
X136347200Y-104129200D03*
%TO.P,J9,3,Pin_3*%
%TO.N,Net-(J18-Pin_3)*%
X136347200Y-101629200D03*
%TO.P,J9,4,Pin_4*%
%TO.N,Net-(J18-Pin_4)*%
X136347200Y-99129200D03*
%TD*%
D12*
%TO.P,R2,1*%
%TO.N,Net-(D2-A)*%
X131724400Y-65328800D03*
D13*
%TO.P,R2,2*%
%TO.N,Net-(J2-Pin_36)*%
X124104400Y-65328800D03*
%TD*%
D12*
%TO.P,R4,1*%
%TO.N,Net-(J2-Pin_22)*%
X124053600Y-83822600D03*
D13*
%TO.P,R4,2*%
%TO.N,Net-(J10-Pin_4)*%
X131673600Y-83822600D03*
%TD*%
D14*
%TO.P,JP4,1,A*%
%TO.N,Net-(J5-Pin_14)*%
X144759200Y-94081600D03*
D15*
%TO.P,JP4,2,B*%
%TO.N,Net-(J1-Pin_6)*%
X143459200Y-94081600D03*
%TD*%
D10*
%TO.P,J15,1,Pin_1*%
%TO.N,Net-(J13-Pin_1)*%
X131523800Y-96418400D03*
D11*
%TO.P,J15,2,Pin_2*%
%TO.N,Net-(J13-Pin_2)*%
X131523800Y-98958400D03*
%TO.P,J15,3,Pin_3*%
%TO.N,Net-(J13-Pin_3)*%
X131523800Y-101498400D03*
%TO.P,J15,4,Pin_4*%
%TO.N,Net-(J13-Pin_4)*%
X131523800Y-104038400D03*
%TO.P,J15,5,Pin_5*%
%TO.N,Net-(J13-Pin_5)*%
X131523800Y-106578400D03*
%TO.P,J15,6,Pin_6*%
%TO.N,Net-(J13-Pin_6)*%
X131523800Y-109118400D03*
%TD*%
D12*
%TO.P,R5,1*%
%TO.N,Net-(J2-Pin_18)*%
X124053600Y-87872600D03*
D13*
%TO.P,R5,2*%
%TO.N,Net-(J10-Pin_2)*%
X131673600Y-87872600D03*
%TD*%
D10*
%TO.P,J2,1,Pin_1*%
%TO.N,Net-(J1-Pin_1)*%
X101447600Y-109169200D03*
D11*
%TO.P,J2,2,Pin_2*%
%TO.N,Net-(J10-Pin_3)*%
X103987600Y-109169200D03*
%TO.P,J2,3,Pin_3*%
%TO.N,Net-(J1-Pin_2)*%
X101447600Y-106629200D03*
%TO.P,J2,4,Pin_4*%
%TO.N,Net-(J2-Pin_4)*%
X103987600Y-106629200D03*
%TO.P,J2,5,Pin_5*%
%TO.N,Net-(J1-Pin_3)*%
X101447600Y-104089200D03*
%TO.P,J2,6,Pin_6*%
%TO.N,Net-(J2-Pin_6)*%
X103987600Y-104089200D03*
%TO.P,J2,7,Pin_7*%
%TO.N,Net-(J1-Pin_4)*%
X101447600Y-101549200D03*
%TO.P,J2,8,Pin_8*%
%TO.N,Net-(J2-Pin_8)*%
X103987600Y-101549200D03*
%TO.P,J2,9,Pin_9*%
%TO.N,Net-(J1-Pin_5)*%
X101447600Y-99009200D03*
%TO.P,J2,10,Pin_10*%
%TO.N,Net-(J2-Pin_10)*%
X103987600Y-99009200D03*
%TO.P,J2,11,Pin_11*%
%TO.N,Net-(J1-Pin_6)*%
X101447600Y-96469200D03*
%TO.P,J2,12,Pin_12*%
%TO.N,Net-(J2-Pin_12)*%
X103987600Y-96469200D03*
%TO.P,J2,13,Pin_13*%
%TO.N,Net-(J1-Pin_7)*%
X101447600Y-93929200D03*
%TO.P,J2,14,Pin_14*%
%TO.N,Net-(J2-Pin_14)*%
X103987600Y-93929200D03*
%TO.P,J2,15,Pin_15*%
%TO.N,Net-(J1-Pin_8)*%
X101447600Y-91389200D03*
%TO.P,J2,16,Pin_16*%
%TO.N,Net-(J2-Pin_16)*%
X103987600Y-91389200D03*
%TO.P,J2,17,Pin_17*%
%TO.N,Net-(J1-Pin_9)*%
X101447600Y-88849200D03*
%TO.P,J2,18,Pin_18*%
%TO.N,Net-(J2-Pin_18)*%
X103987600Y-88849200D03*
%TO.P,J2,19,Pin_19*%
%TO.N,Net-(J1-Pin_10)*%
X101447600Y-86309200D03*
%TO.P,J2,20,Pin_20*%
%TO.N,Net-(J2-Pin_20)*%
X103987600Y-86309200D03*
%TO.P,J2,21,Pin_21*%
%TO.N,Net-(J1-Pin_11)*%
X101447600Y-83769200D03*
%TO.P,J2,22,Pin_22*%
%TO.N,Net-(J2-Pin_22)*%
X103987600Y-83769200D03*
%TO.P,J2,23,Pin_23*%
%TO.N,Net-(J1-Pin_12)*%
X101447600Y-81229200D03*
%TO.P,J2,24,Pin_24*%
%TO.N,Net-(J2-Pin_24)*%
X103987600Y-81229200D03*
%TO.P,J2,25,Pin_25*%
%TO.N,Net-(J1-Pin_13)*%
X101447600Y-78689200D03*
%TO.P,J2,26,Pin_26*%
%TO.N,Net-(J2-Pin_26)*%
X103987600Y-78689200D03*
%TO.P,J2,27,Pin_27*%
%TO.N,Net-(J1-Pin_14)*%
X101447600Y-76149200D03*
%TO.P,J2,28,Pin_28*%
%TO.N,Net-(J2-Pin_28)*%
X103987600Y-76149200D03*
%TO.P,J2,29,Pin_29*%
%TO.N,Net-(G5-B)*%
X101447600Y-73609200D03*
%TO.P,J2,30,Pin_30*%
%TO.N,Net-(J2-Pin_30)*%
X103987600Y-73609200D03*
%TO.P,J2,31,Pin_31*%
%TO.N,Net-(J1-Pin_16)*%
X101447600Y-71069200D03*
%TO.P,J2,32,Pin_32*%
%TO.N,Net-(J2-Pin_32)*%
X103987600Y-71069200D03*
%TO.P,J2,33,Pin_33*%
%TO.N,Net-(J1-Pin_17)*%
X101447600Y-68529200D03*
%TO.P,J2,34,Pin_34*%
%TO.N,Net-(D1-K)*%
X103987600Y-68529200D03*
%TO.P,J2,35,Pin_35*%
%TO.N,Net-(J1-Pin_18)*%
X101447600Y-65989200D03*
%TO.P,J2,36,Pin_36*%
%TO.N,Net-(J2-Pin_36)*%
X103987600Y-65989200D03*
%TO.P,J2,37,Pin_37*%
%TO.N,Net-(J1-Pin_19)*%
X101447600Y-63449200D03*
%TO.P,J2,38,Pin_38*%
%TO.N,Net-(J2-Pin_38)*%
X103987600Y-63449200D03*
%TO.P,J2,39,Pin_39*%
%TO.N,Net-(J1-Pin_20)*%
X101447600Y-60909200D03*
%TO.P,J2,40,Pin_40*%
%TO.N,Net-(J2-Pin_40)*%
X103987600Y-60909200D03*
%TD*%
D16*
%TO.P,D2,1,K*%
%TO.N,Net-(D1-K)*%
X137444400Y-67233800D03*
D17*
%TO.P,D2,2,A*%
%TO.N,Net-(D2-A)*%
X134904400Y-67233800D03*
%TD*%
D10*
%TO.P,J4,1,Pin_1*%
%TO.N,Net-(J2-Pin_40)*%
X119862600Y-60883800D03*
D11*
%TO.P,J4,2,Pin_2*%
%TO.N,Net-(J2-Pin_38)*%
X119862600Y-63423800D03*
%TO.P,J4,3,Pin_3*%
%TO.N,Net-(J2-Pin_36)*%
X119862600Y-65963800D03*
%TO.P,J4,4,Pin_4*%
%TO.N,Net-(D1-K)*%
X119862600Y-68503800D03*
%TO.P,J4,5,Pin_5*%
%TO.N,Net-(J2-Pin_32)*%
X119862600Y-71043800D03*
%TO.P,J4,6,Pin_6*%
%TO.N,Net-(J2-Pin_30)*%
X119862600Y-73583800D03*
%TO.P,J4,7,Pin_7*%
%TO.N,Net-(J2-Pin_28)*%
X119862600Y-76123800D03*
%TO.P,J4,8,Pin_8*%
%TO.N,Net-(J2-Pin_26)*%
X119862600Y-78663800D03*
%TO.P,J4,9,Pin_9*%
%TO.N,Net-(J2-Pin_24)*%
X119862600Y-81203800D03*
%TO.P,J4,10,Pin_10*%
%TO.N,Net-(J2-Pin_22)*%
X119862600Y-83743800D03*
%TO.P,J4,11,Pin_11*%
%TO.N,Net-(J2-Pin_20)*%
X119862600Y-86283800D03*
%TO.P,J4,12,Pin_12*%
%TO.N,Net-(J2-Pin_18)*%
X119862600Y-88823800D03*
%TO.P,J4,13,Pin_13*%
%TO.N,Net-(J2-Pin_16)*%
X119862600Y-91363800D03*
%TO.P,J4,14,Pin_14*%
%TO.N,Net-(J2-Pin_14)*%
X119862600Y-93903800D03*
%TO.P,J4,15,Pin_15*%
%TO.N,Net-(J2-Pin_12)*%
X119862600Y-96443800D03*
%TO.P,J4,16,Pin_16*%
%TO.N,Net-(J2-Pin_10)*%
X119862600Y-98983800D03*
%TO.P,J4,17,Pin_17*%
%TO.N,Net-(J2-Pin_8)*%
X119862600Y-101523800D03*
%TO.P,J4,18,Pin_18*%
%TO.N,Net-(J2-Pin_6)*%
X119862600Y-104063800D03*
%TO.P,J4,19,Pin_19*%
%TO.N,Net-(J2-Pin_4)*%
X119862600Y-106603800D03*
%TO.P,J4,20,Pin_20*%
%TO.N,Net-(J10-Pin_3)*%
X119862600Y-109143800D03*
%TD*%
D10*
%TO.P,J17,1,Pin_1*%
%TO.N,Net-(J10-Pin_3)*%
X126898400Y-112928400D03*
D11*
%TO.P,J17,2,Pin_2*%
X129438400Y-112928400D03*
%TO.P,J17,3,Pin_3*%
X131978400Y-112928400D03*
%TO.P,J17,4,Pin_4*%
X134518400Y-112928400D03*
%TO.P,J17,5,Pin_5*%
X137058400Y-112928400D03*
%TO.P,J17,6,Pin_6*%
X139598400Y-112928400D03*
%TD*%
D10*
%TO.P,J11,1,Pin_1*%
%TO.N,Net-(J1-Pin_1)*%
X89486800Y-109160000D03*
D11*
%TO.P,J11,2,Pin_2*%
%TO.N,Net-(J1-Pin_2)*%
X89486800Y-106620000D03*
%TO.P,J11,3,Pin_3*%
%TO.N,Net-(J1-Pin_3)*%
X89486800Y-104080000D03*
%TO.P,J11,4,Pin_4*%
%TO.N,Net-(J1-Pin_4)*%
X89486800Y-101540000D03*
%TO.P,J11,5,Pin_5*%
%TO.N,Net-(J1-Pin_5)*%
X89486800Y-99000000D03*
%TO.P,J11,6,Pin_6*%
%TO.N,Net-(J1-Pin_6)*%
X89486800Y-96460000D03*
%TO.P,J11,7,Pin_7*%
%TO.N,Net-(J1-Pin_7)*%
X89486800Y-93920000D03*
%TO.P,J11,8,Pin_8*%
%TO.N,Net-(J1-Pin_8)*%
X89486800Y-91380000D03*
%TO.P,J11,9,Pin_9*%
%TO.N,Net-(J1-Pin_9)*%
X89486800Y-88840000D03*
%TO.P,J11,10,Pin_10*%
%TO.N,Net-(J1-Pin_10)*%
X89486800Y-86300000D03*
%TO.P,J11,11,Pin_11*%
%TO.N,Net-(J1-Pin_11)*%
X89486800Y-83760000D03*
%TO.P,J11,12,Pin_12*%
%TO.N,Net-(J1-Pin_12)*%
X89486800Y-81220000D03*
%TO.P,J11,13,Pin_13*%
%TO.N,Net-(J1-Pin_13)*%
X89486800Y-78680000D03*
%TO.P,J11,14,Pin_14*%
%TO.N,Net-(J1-Pin_14)*%
X89486800Y-76140000D03*
%TO.P,J11,15,Pin_15*%
%TO.N,Net-(G5-B)*%
X89486800Y-73600000D03*
%TO.P,J11,16,Pin_16*%
%TO.N,Net-(J1-Pin_16)*%
X89486800Y-71060000D03*
%TO.P,J11,17,Pin_17*%
%TO.N,Net-(J1-Pin_17)*%
X89486800Y-68520000D03*
%TO.P,J11,18,Pin_18*%
%TO.N,Net-(J1-Pin_18)*%
X89486800Y-65980000D03*
%TO.P,J11,19,Pin_19*%
%TO.N,Net-(J1-Pin_19)*%
X89486800Y-63440000D03*
%TO.P,J11,20,Pin_20*%
%TO.N,Net-(J1-Pin_20)*%
X89486800Y-60900000D03*
%TD*%
D10*
%TO.P,J12,1,Pin_1*%
%TO.N,Net-(J1-Pin_1)*%
X85877400Y-109160000D03*
D11*
%TO.P,J12,2,Pin_2*%
%TO.N,Net-(J1-Pin_2)*%
X85877400Y-106620000D03*
%TO.P,J12,3,Pin_3*%
%TO.N,Net-(J1-Pin_3)*%
X85877400Y-104080000D03*
%TO.P,J12,4,Pin_4*%
%TO.N,Net-(J1-Pin_4)*%
X85877400Y-101540000D03*
%TO.P,J12,5,Pin_5*%
%TO.N,Net-(J1-Pin_5)*%
X85877400Y-99000000D03*
%TO.P,J12,6,Pin_6*%
%TO.N,Net-(J1-Pin_6)*%
X85877400Y-96460000D03*
%TO.P,J12,7,Pin_7*%
%TO.N,Net-(J1-Pin_7)*%
X85877400Y-93920000D03*
%TO.P,J12,8,Pin_8*%
%TO.N,Net-(J1-Pin_8)*%
X85877400Y-91380000D03*
%TO.P,J12,9,Pin_9*%
%TO.N,Net-(J1-Pin_9)*%
X85877400Y-88840000D03*
%TO.P,J12,10,Pin_10*%
%TO.N,Net-(J1-Pin_10)*%
X85877400Y-86300000D03*
%TO.P,J12,11,Pin_11*%
%TO.N,Net-(J1-Pin_11)*%
X85877400Y-83760000D03*
%TO.P,J12,12,Pin_12*%
%TO.N,Net-(J1-Pin_12)*%
X85877400Y-81220000D03*
%TO.P,J12,13,Pin_13*%
%TO.N,Net-(J1-Pin_13)*%
X85877400Y-78680000D03*
%TO.P,J12,14,Pin_14*%
%TO.N,Net-(J1-Pin_14)*%
X85877400Y-76140000D03*
%TO.P,J12,15,Pin_15*%
%TO.N,Net-(G5-B)*%
X85877400Y-73600000D03*
%TO.P,J12,16,Pin_16*%
%TO.N,Net-(J1-Pin_16)*%
X85877400Y-71060000D03*
%TO.P,J12,17,Pin_17*%
%TO.N,Net-(J1-Pin_17)*%
X85877400Y-68520000D03*
%TO.P,J12,18,Pin_18*%
%TO.N,Net-(J1-Pin_18)*%
X85877400Y-65980000D03*
%TO.P,J12,19,Pin_19*%
%TO.N,Net-(J1-Pin_19)*%
X85877400Y-63440000D03*
%TO.P,J12,20,Pin_20*%
%TO.N,Net-(J1-Pin_20)*%
X85877400Y-60900000D03*
%TD*%
D10*
%TO.P,J1,1,Pin_1*%
%TO.N,Net-(J1-Pin_1)*%
X93091000Y-109169200D03*
D11*
%TO.P,J1,2,Pin_2*%
%TO.N,Net-(J1-Pin_2)*%
X93091000Y-106629200D03*
%TO.P,J1,3,Pin_3*%
%TO.N,Net-(J1-Pin_3)*%
X93091000Y-104089200D03*
%TO.P,J1,4,Pin_4*%
%TO.N,Net-(J1-Pin_4)*%
X93091000Y-101549200D03*
%TO.P,J1,5,Pin_5*%
%TO.N,Net-(J1-Pin_5)*%
X93091000Y-99009200D03*
%TO.P,J1,6,Pin_6*%
%TO.N,Net-(J1-Pin_6)*%
X93091000Y-96469200D03*
%TO.P,J1,7,Pin_7*%
%TO.N,Net-(J1-Pin_7)*%
X93091000Y-93929200D03*
%TO.P,J1,8,Pin_8*%
%TO.N,Net-(J1-Pin_8)*%
X93091000Y-91389200D03*
%TO.P,J1,9,Pin_9*%
%TO.N,Net-(J1-Pin_9)*%
X93091000Y-88849200D03*
%TO.P,J1,10,Pin_10*%
%TO.N,Net-(J1-Pin_10)*%
X93091000Y-86309200D03*
%TO.P,J1,11,Pin_11*%
%TO.N,Net-(J1-Pin_11)*%
X93091000Y-83769200D03*
%TO.P,J1,12,Pin_12*%
%TO.N,Net-(J1-Pin_12)*%
X93091000Y-81229200D03*
%TO.P,J1,13,Pin_13*%
%TO.N,Net-(J1-Pin_13)*%
X93091000Y-78689200D03*
%TO.P,J1,14,Pin_14*%
%TO.N,Net-(J1-Pin_14)*%
X93091000Y-76149200D03*
%TO.P,J1,15,Pin_15*%
%TO.N,Net-(G5-B)*%
X93091000Y-73609200D03*
%TO.P,J1,16,Pin_16*%
%TO.N,Net-(J1-Pin_16)*%
X93091000Y-71069200D03*
%TO.P,J1,17,Pin_17*%
%TO.N,Net-(J1-Pin_17)*%
X93091000Y-68529200D03*
%TO.P,J1,18,Pin_18*%
%TO.N,Net-(J1-Pin_18)*%
X93091000Y-65989200D03*
%TO.P,J1,19,Pin_19*%
%TO.N,Net-(J1-Pin_19)*%
X93091000Y-63449200D03*
%TO.P,J1,20,Pin_20*%
%TO.N,Net-(J1-Pin_20)*%
X93091000Y-60909200D03*
%TD*%
D10*
%TO.P,J8,1,Pin_1*%
%TO.N,Net-(J5-Pin_1)*%
X156870400Y-60960000D03*
D11*
%TO.P,J8,2,Pin_2*%
%TO.N,Net-(J5-Pin_2)*%
X156870400Y-63500000D03*
%TO.P,J8,3,Pin_3*%
%TO.N,Net-(J5-Pin_3)*%
X156870400Y-66040000D03*
%TO.P,J8,4,Pin_4*%
%TO.N,Net-(J10-Pin_3)*%
X156870400Y-68580000D03*
%TO.P,J8,5,Pin_5*%
%TO.N,Net-(J5-Pin_5)*%
X156870400Y-71120000D03*
%TO.P,J8,6,Pin_6*%
%TO.N,Net-(J2-Pin_8)*%
X156870400Y-73660000D03*
%TO.P,J8,7,Pin_7*%
%TO.N,Net-(J2-Pin_10)*%
X156870400Y-76200000D03*
%TO.P,J8,8,Pin_8*%
%TO.N,Net-(J5-Pin_8)*%
X156870400Y-78740000D03*
%TO.P,J8,9,Pin_9*%
%TO.N,Net-(J5-Pin_9)*%
X156870400Y-81280000D03*
%TO.P,J8,10,Pin_10*%
%TO.N,Net-(J5-Pin_10)*%
X156870400Y-83820000D03*
%TO.P,J8,11,Pin_11*%
%TO.N,Net-(G5-A)*%
X156870400Y-86360000D03*
%TO.P,J8,12,Pin_12*%
%TO.N,Net-(J5-Pin_12)*%
X156870400Y-88900000D03*
%TO.P,J8,13,Pin_13*%
%TO.N,Net-(J5-Pin_13)*%
X156870400Y-91440000D03*
%TO.P,J8,14,Pin_14*%
%TO.N,Net-(J5-Pin_14)*%
X156870400Y-93980000D03*
%TO.P,J8,15,Pin_15*%
%TO.N,Net-(J18-Pin_4)*%
X156870400Y-96520000D03*
%TO.P,J8,16,Pin_16*%
%TO.N,Net-(J18-Pin_3)*%
X156870400Y-99060000D03*
%TO.P,J8,17,Pin_17*%
%TO.N,Net-(J18-Pin_2)*%
X156870400Y-101600000D03*
%TO.P,J8,18,Pin_18*%
%TO.N,Net-(J18-Pin_1)*%
X156870400Y-104140000D03*
%TD*%
D14*
%TO.P,JP3,1,A*%
%TO.N,Net-(J5-Pin_13)*%
X144759200Y-91423066D03*
D15*
%TO.P,JP3,2,B*%
%TO.N,Net-(J1-Pin_7)*%
X143459200Y-91423066D03*
%TD*%
D18*
%TO.P,J10,1,Pin_1*%
%TO.N,Net-(J10-Pin_1)*%
X136347200Y-91929600D03*
D19*
%TO.P,J10,2,Pin_2*%
%TO.N,Net-(J10-Pin_2)*%
X136347200Y-89429600D03*
%TO.P,J10,3,Pin_3*%
%TO.N,Net-(J10-Pin_3)*%
X136347200Y-86929600D03*
%TO.P,J10,4,Pin_4*%
%TO.N,Net-(J10-Pin_4)*%
X136347200Y-84429600D03*
%TD*%
D10*
%TO.P,J16,1,Pin_1*%
%TO.N,Net-(D1-K)*%
X124561600Y-78689200D03*
D11*
%TO.P,J16,2,Pin_2*%
X127101600Y-78689200D03*
%TO.P,J16,3,Pin_3*%
X129641600Y-78689200D03*
%TO.P,J16,4,Pin_4*%
X132181600Y-78689200D03*
%TO.P,J16,5,Pin_5*%
X134721600Y-78689200D03*
%TO.P,J16,6,Pin_6*%
X137261600Y-78689200D03*
%TD*%
D10*
%TO.P,J3,1,Pin_1*%
%TO.N,Net-(J2-Pin_40)*%
X112649000Y-60960000D03*
D11*
%TO.P,J3,2,Pin_2*%
%TO.N,Net-(J2-Pin_38)*%
X112649000Y-63500000D03*
%TO.P,J3,3,Pin_3*%
%TO.N,Net-(J2-Pin_36)*%
X112649000Y-66040000D03*
%TO.P,J3,4,Pin_4*%
%TO.N,Net-(D1-K)*%
X112649000Y-68580000D03*
%TO.P,J3,5,Pin_5*%
%TO.N,Net-(J2-Pin_32)*%
X112649000Y-71120000D03*
%TO.P,J3,6,Pin_6*%
%TO.N,Net-(J2-Pin_30)*%
X112649000Y-73660000D03*
%TO.P,J3,7,Pin_7*%
%TO.N,Net-(J2-Pin_28)*%
X112649000Y-76200000D03*
%TO.P,J3,8,Pin_8*%
%TO.N,Net-(J2-Pin_26)*%
X112649000Y-78740000D03*
%TO.P,J3,9,Pin_9*%
%TO.N,Net-(J2-Pin_24)*%
X112649000Y-81280000D03*
%TO.P,J3,10,Pin_10*%
%TO.N,Net-(J2-Pin_22)*%
X112649000Y-83820000D03*
%TO.P,J3,11,Pin_11*%
%TO.N,Net-(J2-Pin_20)*%
X112649000Y-86360000D03*
%TO.P,J3,12,Pin_12*%
%TO.N,Net-(J2-Pin_18)*%
X112649000Y-88900000D03*
%TO.P,J3,13,Pin_13*%
%TO.N,Net-(J2-Pin_16)*%
X112649000Y-91440000D03*
%TO.P,J3,14,Pin_14*%
%TO.N,Net-(J2-Pin_14)*%
X112649000Y-93980000D03*
%TO.P,J3,15,Pin_15*%
%TO.N,Net-(J2-Pin_12)*%
X112649000Y-96520000D03*
%TO.P,J3,16,Pin_16*%
%TO.N,Net-(J2-Pin_10)*%
X112649000Y-99060000D03*
%TO.P,J3,17,Pin_17*%
%TO.N,Net-(J2-Pin_8)*%
X112649000Y-101600000D03*
%TO.P,J3,18,Pin_18*%
%TO.N,Net-(J2-Pin_6)*%
X112649000Y-104140000D03*
%TO.P,J3,19,Pin_19*%
%TO.N,Net-(J2-Pin_4)*%
X112649000Y-106680000D03*
%TO.P,J3,20,Pin_20*%
%TO.N,Net-(J10-Pin_3)*%
X112649000Y-109220000D03*
%TD*%
D10*
%TO.P,J7,1,Pin_1*%
%TO.N,Net-(J2-Pin_40)*%
X116230400Y-60883800D03*
D11*
%TO.P,J7,2,Pin_2*%
%TO.N,Net-(J2-Pin_38)*%
X116230400Y-63423800D03*
%TO.P,J7,3,Pin_3*%
%TO.N,Net-(J2-Pin_36)*%
X116230400Y-65963800D03*
%TO.P,J7,4,Pin_4*%
%TO.N,Net-(D1-K)*%
X116230400Y-68503800D03*
%TO.P,J7,5,Pin_5*%
%TO.N,Net-(J2-Pin_32)*%
X116230400Y-71043800D03*
%TO.P,J7,6,Pin_6*%
%TO.N,Net-(J2-Pin_30)*%
X116230400Y-73583800D03*
%TO.P,J7,7,Pin_7*%
%TO.N,Net-(J2-Pin_28)*%
X116230400Y-76123800D03*
%TO.P,J7,8,Pin_8*%
%TO.N,Net-(J2-Pin_26)*%
X116230400Y-78663800D03*
%TO.P,J7,9,Pin_9*%
%TO.N,Net-(J2-Pin_24)*%
X116230400Y-81203800D03*
%TO.P,J7,10,Pin_10*%
%TO.N,Net-(J2-Pin_22)*%
X116230400Y-83743800D03*
%TO.P,J7,11,Pin_11*%
%TO.N,Net-(J2-Pin_20)*%
X116230400Y-86283800D03*
%TO.P,J7,12,Pin_12*%
%TO.N,Net-(J2-Pin_18)*%
X116230400Y-88823800D03*
%TO.P,J7,13,Pin_13*%
%TO.N,Net-(J2-Pin_16)*%
X116230400Y-91363800D03*
%TO.P,J7,14,Pin_14*%
%TO.N,Net-(J2-Pin_14)*%
X116230400Y-93903800D03*
%TO.P,J7,15,Pin_15*%
%TO.N,Net-(J2-Pin_12)*%
X116230400Y-96443800D03*
%TO.P,J7,16,Pin_16*%
%TO.N,Net-(J2-Pin_10)*%
X116230400Y-98983800D03*
%TO.P,J7,17,Pin_17*%
%TO.N,Net-(J2-Pin_8)*%
X116230400Y-101523800D03*
%TO.P,J7,18,Pin_18*%
%TO.N,Net-(J2-Pin_6)*%
X116230400Y-104063800D03*
%TO.P,J7,19,Pin_19*%
%TO.N,Net-(J2-Pin_4)*%
X116230400Y-106603800D03*
%TO.P,J7,20,Pin_20*%
%TO.N,Net-(J10-Pin_3)*%
X116230400Y-109143800D03*
%TD*%
D16*
%TO.P,D1,1,K*%
%TO.N,Net-(D1-K)*%
X137414000Y-61468000D03*
D17*
%TO.P,D1,2,A*%
%TO.N,Net-(D1-A)*%
X134874000Y-61468000D03*
%TD*%
D10*
%TO.P,J14,1,Pin_1*%
%TO.N,Net-(J13-Pin_1)*%
X127967800Y-96418400D03*
D11*
%TO.P,J14,2,Pin_2*%
%TO.N,Net-(J13-Pin_2)*%
X127967800Y-98958400D03*
%TO.P,J14,3,Pin_3*%
%TO.N,Net-(J13-Pin_3)*%
X127967800Y-101498400D03*
%TO.P,J14,4,Pin_4*%
%TO.N,Net-(J13-Pin_4)*%
X127967800Y-104038400D03*
%TO.P,J14,5,Pin_5*%
%TO.N,Net-(J13-Pin_5)*%
X127967800Y-106578400D03*
%TO.P,J14,6,Pin_6*%
%TO.N,Net-(J13-Pin_6)*%
X127967800Y-109118400D03*
%TD*%
D20*
%TO.P,J18,1,Pin_1*%
%TO.N,Net-(J18-Pin_1)*%
X147167600Y-111201200D03*
D21*
%TO.P,J18,2,Pin_2*%
%TO.N,Net-(J18-Pin_2)*%
X150667600Y-111201200D03*
%TO.P,J18,3,Pin_3*%
%TO.N,Net-(J18-Pin_3)*%
X154167600Y-111201200D03*
%TO.P,J18,4,Pin_4*%
%TO.N,Net-(J18-Pin_4)*%
X157667600Y-111201200D03*
%TD*%
D22*
%TO.N,Net-(G5-B)*%
X143459200Y-86106000D02*
X137268200Y-79915000D01*
X137268200Y-79915000D02*
X123437400Y-79915000D01*
X123437400Y-79915000D02*
X121037600Y-77515200D01*
X121037600Y-77515200D02*
X121037600Y-75637099D01*
X121037600Y-75637099D02*
X120240501Y-74840000D01*
X102678400Y-74840000D02*
X101447600Y-73609200D01*
X120240501Y-74840000D02*
X102678400Y-74840000D01*
D23*
%TO.N,Net-(J1-Pin_2)*%
X93091000Y-106629200D02*
X89496000Y-106629200D01*
X89496000Y-106629200D02*
X89486800Y-106620000D01*
D22*
X92811600Y-106594600D02*
X101447600Y-106594600D01*
D23*
X89486800Y-106620000D02*
X85877400Y-106620000D01*
%TO.N,Net-(J1-Pin_1)*%
X89486800Y-109160000D02*
X93081800Y-109160000D01*
X93081800Y-109160000D02*
X93091000Y-109169200D01*
X85877400Y-109160000D02*
X89486800Y-109160000D01*
D22*
X101447600Y-109134600D02*
X92811600Y-109134600D01*
D23*
%TO.N,Net-(J1-Pin_4)*%
X93091000Y-101549200D02*
X89496000Y-101549200D01*
X89496000Y-101549200D02*
X89486800Y-101540000D01*
X85988200Y-101540000D02*
X89486800Y-101540000D01*
D22*
X92811600Y-101514600D02*
X101447600Y-101514600D01*
D23*
%TO.N,Net-(J1-Pin_6)*%
X89496000Y-96469200D02*
X89486800Y-96460000D01*
D22*
X143420020Y-94164400D02*
X142429420Y-95155000D01*
X142429420Y-95155000D02*
X102761800Y-95155000D01*
D23*
X85877400Y-96460000D02*
X89486800Y-96460000D01*
D22*
X92811600Y-96434600D02*
X101447600Y-96434600D01*
D23*
X93091000Y-96469200D02*
X89496000Y-96469200D01*
D22*
X102761800Y-95155000D02*
X101447600Y-96469200D01*
%TO.N,Net-(J1-Pin_8)*%
X141546620Y-90754600D02*
X126812591Y-90754600D01*
X102648000Y-90188800D02*
X101447600Y-91389200D01*
D23*
X93091000Y-91389200D02*
X89496000Y-91389200D01*
D22*
X126812591Y-90754600D02*
X126246791Y-90188800D01*
X92811600Y-91354600D02*
X101447600Y-91354600D01*
D23*
X85877400Y-91380000D02*
X89486800Y-91380000D01*
D22*
X126246791Y-90188800D02*
X102648000Y-90188800D01*
D23*
X89496000Y-91389200D02*
X89486800Y-91380000D01*
D22*
X143420020Y-88881200D02*
X141546620Y-90754600D01*
D23*
%TO.N,Net-(J1-Pin_10)*%
X85877400Y-86300000D02*
X89486800Y-86300000D01*
D22*
X92837000Y-86149600D02*
X101473000Y-86149600D01*
D23*
X89486800Y-86300000D02*
X93081800Y-86300000D01*
X93081800Y-86300000D02*
X93091000Y-86309200D01*
%TO.N,Net-(J1-Pin_12)*%
X85877400Y-81220000D02*
X89486800Y-81220000D01*
D22*
X93065600Y-81203800D02*
X101473000Y-81203800D01*
D23*
X93091000Y-81229200D02*
X89496000Y-81229200D01*
X89496000Y-81229200D02*
X89486800Y-81220000D01*
%TO.N,Net-(J1-Pin_14)*%
X89496000Y-76149200D02*
X89486800Y-76140000D01*
D22*
X101473000Y-75989600D02*
X92837000Y-75989600D01*
D23*
X93091000Y-76149200D02*
X89496000Y-76149200D01*
X85877400Y-76140000D02*
X89486800Y-76140000D01*
D22*
%TO.N,Net-(J1-Pin_16)*%
X102622600Y-68042499D02*
X102622600Y-69894200D01*
D23*
X93091000Y-71069200D02*
X89496000Y-71069200D01*
X89496000Y-71069200D02*
X89486800Y-71060000D01*
D22*
X103336299Y-67328800D02*
X102622600Y-68042499D01*
X102622600Y-69894200D02*
X101447600Y-71069200D01*
D23*
X85877400Y-71060000D02*
X89486800Y-71060000D01*
D22*
X124104400Y-69773800D02*
X121659400Y-67328800D01*
X92837000Y-70909600D02*
X101473000Y-70909600D01*
X121659400Y-67328800D02*
X103336299Y-67328800D01*
D23*
%TO.N,Net-(J1-Pin_18)*%
X85877400Y-65980000D02*
X89486800Y-65980000D01*
X89486800Y-65980000D02*
X93081800Y-65980000D01*
X93081800Y-65980000D02*
X93091000Y-65989200D01*
D22*
X92429519Y-65940400D02*
X100843919Y-65940400D01*
D23*
%TO.N,Net-(J1-Pin_3)*%
X85877400Y-104080000D02*
X89486800Y-104080000D01*
D22*
X101447600Y-104054600D02*
X92811600Y-104054600D01*
D23*
X93081800Y-104080000D02*
X93091000Y-104089200D01*
X89486800Y-104080000D02*
X93081800Y-104080000D01*
%TO.N,Net-(J1-Pin_5)*%
X93091000Y-99009200D02*
X89496000Y-99009200D01*
D22*
X101447600Y-99108800D02*
X92811600Y-99108800D01*
D23*
X89496000Y-99009200D02*
X89486800Y-99000000D01*
X85877400Y-99000000D02*
X89486800Y-99000000D01*
D22*
%TO.N,Net-(J1-Pin_7)*%
X141838220Y-93104600D02*
X120915101Y-93104600D01*
X102648000Y-92728800D02*
X101447600Y-93929200D01*
D23*
X89486800Y-93920000D02*
X85877400Y-93920000D01*
X89486800Y-93920000D02*
X93081800Y-93920000D01*
D22*
X143420020Y-91522800D02*
X141838220Y-93104600D01*
X120539301Y-92728800D02*
X102648000Y-92728800D01*
X101447600Y-93894600D02*
X92811600Y-93894600D01*
D23*
X93081800Y-93920000D02*
X93091000Y-93929200D01*
D22*
X120915101Y-93104600D02*
X120539301Y-92728800D01*
D23*
%TO.N,Net-(J1-Pin_9)*%
X89486800Y-88840000D02*
X93081800Y-88840000D01*
X93081800Y-88840000D02*
X93091000Y-88849200D01*
X89486800Y-88840000D02*
X85877400Y-88840000D01*
D22*
X101473000Y-88689600D02*
X92837000Y-88689600D01*
D23*
%TO.N,Net-(J1-Pin_11)*%
X89496000Y-83769200D02*
X89486800Y-83760000D01*
D22*
X101473000Y-83609600D02*
X92837000Y-83609600D01*
D23*
X93091000Y-83769200D02*
X89496000Y-83769200D01*
X85877400Y-83760000D02*
X89486800Y-83760000D01*
%TO.N,Net-(J1-Pin_13)*%
X89486800Y-78680000D02*
X85877400Y-78680000D01*
X89496000Y-78689200D02*
X89486800Y-78680000D01*
X93091000Y-78689200D02*
X89496000Y-78689200D01*
D22*
X92837000Y-78529600D02*
X101473000Y-78529600D01*
D23*
%TO.N,Net-(J1-Pin_17)*%
X89496000Y-68529200D02*
X89486800Y-68520000D01*
X89486800Y-68520000D02*
X85877400Y-68520000D01*
X93091000Y-68529200D02*
X89496000Y-68529200D01*
D22*
X101473000Y-68369600D02*
X92837000Y-68369600D01*
%TO.N,Net-(J1-Pin_19)*%
X101473000Y-63289600D02*
X101286000Y-63476600D01*
D23*
X89496000Y-63449200D02*
X89486800Y-63440000D01*
D22*
X101286000Y-63476600D02*
X93024000Y-63476600D01*
X124104400Y-62430209D02*
X124104400Y-60883800D01*
D23*
X93091000Y-63449200D02*
X89496000Y-63449200D01*
D22*
X101473000Y-63440000D02*
X102708000Y-64675000D01*
X121859609Y-64675000D02*
X124104400Y-62430209D01*
X102708000Y-64675000D02*
X121859609Y-64675000D01*
D23*
X85877400Y-63440000D02*
X89486800Y-63440000D01*
%TO.N,Net-(J1-Pin_20)*%
X85877400Y-60900000D02*
X89486800Y-60900000D01*
D22*
X89486800Y-60900000D02*
X89496000Y-60909200D01*
X93091000Y-60909200D02*
X101463800Y-60909200D01*
X89486800Y-60900000D02*
X93081800Y-60900000D01*
X93081800Y-60900000D02*
X93091000Y-60909200D01*
D23*
X85877400Y-60900000D02*
X93081800Y-60900000D01*
%TO.N,Net-(J2-Pin_38)*%
X119862600Y-63500000D02*
X116230400Y-63500000D01*
X112649000Y-63500000D02*
X116230400Y-63500000D01*
D22*
X104013000Y-63423800D02*
X112614400Y-63423800D01*
%TO.N,Net-(J2-Pin_30)*%
X104013000Y-73449600D02*
X112649000Y-73449600D01*
D23*
X116230400Y-73660000D02*
X119862600Y-73660000D01*
X116230400Y-73660000D02*
X112649000Y-73660000D01*
D22*
%TO.N,Net-(J2-Pin_28)*%
X112649000Y-75989600D02*
X104013000Y-75989600D01*
D23*
X119862600Y-76200000D02*
X116230400Y-76200000D01*
X112649000Y-76200000D02*
X116230400Y-76200000D01*
%TO.N,Net-(J2-Pin_26)*%
X116230400Y-78740000D02*
X112649000Y-78740000D01*
X119862600Y-78740000D02*
X116230400Y-78740000D01*
D22*
X104013000Y-78529600D02*
X112649000Y-78529600D01*
%TO.N,Net-(J2-Pin_24)*%
X112649000Y-81388800D02*
X104198000Y-81388800D01*
D23*
X119862600Y-81280000D02*
X116230400Y-81280000D01*
X112649000Y-81280000D02*
X116230400Y-81280000D01*
D22*
%TO.N,Net-(J2-Pin_16)*%
X123494800Y-91363800D02*
X124053600Y-91922600D01*
D23*
X112649000Y-91440000D02*
X116230400Y-91440000D01*
D22*
X119862600Y-91363800D02*
X119862600Y-91440000D01*
X119862600Y-91363800D02*
X123494800Y-91363800D01*
D23*
X119862600Y-91440000D02*
X116230400Y-91440000D01*
D22*
X112649000Y-91548800D02*
X104047600Y-91548800D01*
%TO.N,Net-(D1-A)*%
X131724400Y-60883800D02*
X134289800Y-60883800D01*
X134289800Y-60883800D02*
X134874000Y-61468000D01*
%TO.N,Net-(D2-A)*%
X132999400Y-65328800D02*
X134904400Y-67233800D01*
X131724400Y-65328800D02*
X132999400Y-65328800D01*
%TO.N,Net-(D3-A)*%
X134899400Y-72948800D02*
X131724400Y-69773800D01*
%TO.N,Net-(J10-Pin_2)*%
X134790200Y-87872600D02*
X136347200Y-89429600D01*
X131673600Y-87872600D02*
X134790200Y-87872600D01*
%TO.N,Net-(J10-Pin_1)*%
X131673600Y-91922600D02*
X137007600Y-91922600D01*
%TO.N,Net-(J10-Pin_4)*%
X131673600Y-83822600D02*
X136864800Y-83822600D01*
%TO.N,Net-(J18-Pin_1)*%
X154482800Y-104140000D02*
X156870400Y-104140000D01*
X153286400Y-104140000D02*
X156870400Y-104140000D01*
X145509600Y-106560000D02*
X147955000Y-104114600D01*
X147536100Y-111086700D02*
X154482800Y-104140000D01*
X147292500Y-111086700D02*
X147536100Y-111086700D01*
X137160000Y-106560000D02*
X145509600Y-106560000D01*
X153286400Y-104140000D02*
X147980400Y-104140000D01*
%TO.N,Net-(J5-Pin_1)*%
X152600600Y-61112400D02*
X148000600Y-61112400D01*
X153286400Y-60960000D02*
X156870400Y-60960000D01*
%TO.N,Net-(J5-Pin_2)*%
X156870400Y-63500000D02*
X153286400Y-63500000D01*
X148000600Y-63652400D02*
X152600600Y-63652400D01*
%TO.N,Net-(J5-Pin_3)*%
X152600600Y-66192400D02*
X148000600Y-66192400D01*
X153286400Y-66040000D02*
X156870400Y-66040000D01*
%TO.N,Net-(J5-Pin_5)*%
X152600600Y-71272400D02*
X148000600Y-71272400D01*
X153286400Y-71120000D02*
X156870400Y-71120000D01*
%TO.N,Net-(J5-Pin_8)*%
X148000600Y-78892400D02*
X152600600Y-78892400D01*
X153286400Y-78740000D02*
X156870400Y-78740000D01*
%TO.N,Net-(J5-Pin_9)*%
X152600600Y-81432400D02*
X148000600Y-81432400D01*
X156870400Y-81280000D02*
X153286400Y-81280000D01*
%TO.N,Net-(J5-Pin_10)*%
X153286400Y-83820000D02*
X156870400Y-83820000D01*
X148000600Y-83972400D02*
X152600600Y-83972400D01*
%TO.N,Net-(J5-Pin_12)*%
X144515600Y-88874600D02*
X147955000Y-88874600D01*
X147955000Y-88874600D02*
X153261000Y-88874600D01*
X153286400Y-88900000D02*
X156870400Y-88900000D01*
%TO.N,Net-(J5-Pin_13)*%
X145099800Y-91414600D02*
X147955000Y-91414600D01*
X147980400Y-91440000D02*
X147955000Y-91414600D01*
X156870400Y-91440000D02*
X153286400Y-91440000D01*
X153286400Y-91440000D02*
X147980400Y-91440000D01*
%TO.N,Net-(J5-Pin_14)*%
X153286400Y-93980000D02*
X156870400Y-93980000D01*
X147955000Y-93954600D02*
X153261000Y-93954600D01*
X145089400Y-93954600D02*
X147955000Y-93954600D01*
D23*
%TO.N,Net-(J2-Pin_14)*%
X112649000Y-93980000D02*
X116230400Y-93980000D01*
X116230400Y-93980000D02*
X119862600Y-93980000D01*
D22*
X103987600Y-93894600D02*
X112623600Y-93894600D01*
D23*
%TO.N,Net-(J2-Pin_40)*%
X119862600Y-60960000D02*
X116230400Y-60960000D01*
X112649000Y-60960000D02*
X116230400Y-60960000D01*
D22*
X104013000Y-60749600D02*
X112538200Y-60749600D01*
D23*
%TO.N,Net-(J2-Pin_36)*%
X119862600Y-66040000D02*
X116230400Y-66040000D01*
X112649000Y-66040000D02*
X116230400Y-66040000D01*
D22*
X112674400Y-65965800D02*
X104149200Y-65965800D01*
X120497600Y-65328800D02*
X124104400Y-65328800D01*
X119862600Y-65963800D02*
X120497600Y-65328800D01*
D23*
%TO.N,Net-(J2-Pin_32)*%
X119862600Y-71120000D02*
X116230400Y-71120000D01*
D22*
X112674400Y-71045800D02*
X104149200Y-71045800D01*
D23*
X112649000Y-71120000D02*
X116230400Y-71120000D01*
D22*
%TO.N,Net-(J2-Pin_20)*%
X112674400Y-86343800D02*
X104073000Y-86343800D01*
D23*
X116230400Y-86360000D02*
X119862600Y-86360000D01*
X112649000Y-86360000D02*
X116230400Y-86360000D01*
D22*
X104073000Y-86343800D02*
X104013000Y-86283800D01*
D23*
%TO.N,Net-(J2-Pin_18)*%
X116230400Y-88900000D02*
X119862600Y-88900000D01*
D22*
X124053600Y-87872600D02*
X121024200Y-87872600D01*
X121024200Y-87872600D02*
X119888000Y-89008800D01*
X104013000Y-88823800D02*
X112614400Y-88823800D01*
D23*
X112649000Y-88900000D02*
X116230400Y-88900000D01*
D22*
%TO.N,Net-(J2-Pin_22)*%
X104013000Y-83743800D02*
X112614400Y-83743800D01*
X120749000Y-83822600D02*
X124053600Y-83822600D01*
X120555600Y-83928800D02*
X120599200Y-83972400D01*
D23*
X112649000Y-83820000D02*
X116230400Y-83820000D01*
X116230400Y-83820000D02*
X119862600Y-83820000D01*
%TO.N,Net-(J13-Pin_2)*%
X124383800Y-98958400D02*
X127967800Y-98958400D01*
X131523800Y-98958400D02*
X127967800Y-98958400D01*
%TO.N,Net-(J13-Pin_3)*%
X124383800Y-101498400D02*
X127967800Y-101498400D01*
X127967800Y-101498400D02*
X131523800Y-101498400D01*
%TO.N,Net-(J13-Pin_4)*%
X131523800Y-104038400D02*
X127967800Y-104038400D01*
X124383800Y-104038400D02*
X127967800Y-104038400D01*
%TO.N,Net-(J13-Pin_5)*%
X124383800Y-106578400D02*
X127967800Y-106578400D01*
X131523800Y-106578400D02*
X127967800Y-106578400D01*
%TO.N,Net-(J13-Pin_6)*%
X131523800Y-109118400D02*
X127967800Y-109118400D01*
X124383800Y-109118400D02*
X127967800Y-109118400D01*
D22*
%TO.N,Net-(J2-Pin_12)*%
X104013000Y-96460000D02*
X112589000Y-96460000D01*
D23*
X119862600Y-96520000D02*
X116230400Y-96520000D01*
X116230400Y-96520000D02*
X112649000Y-96520000D01*
D22*
X112589000Y-96460000D02*
X112649000Y-96520000D01*
%TO.N,Net-(J2-Pin_10)*%
X152600600Y-76352400D02*
X148000600Y-76352400D01*
D23*
X112649000Y-99060000D02*
X116230400Y-99060000D01*
D22*
X156870400Y-76200000D02*
X153286400Y-76200000D01*
D23*
X116230400Y-99060000D02*
X119862600Y-99060000D01*
D22*
X103987600Y-99108800D02*
X112589000Y-99108800D01*
%TO.N,Net-(J2-Pin_8)*%
X148000600Y-73812400D02*
X152600600Y-73812400D01*
X104013000Y-101540000D02*
X112589000Y-101540000D01*
X112589000Y-101540000D02*
X112649000Y-101600000D01*
D23*
X119862600Y-101600000D02*
X116230400Y-101600000D01*
X112649000Y-101600000D02*
X116230400Y-101600000D01*
D22*
X153286400Y-73660000D02*
X156870400Y-73660000D01*
D23*
%TO.N,Net-(J2-Pin_6)*%
X116230400Y-104140000D02*
X119862600Y-104140000D01*
D22*
X103987600Y-104054600D02*
X112623600Y-104054600D01*
D23*
X112649000Y-104140000D02*
X116230400Y-104140000D01*
%TO.N,Net-(J2-Pin_4)*%
X119862600Y-106680000D02*
X116230400Y-106680000D01*
X112649000Y-106680000D02*
X113207800Y-106680000D01*
X113258600Y-106629200D02*
X113309400Y-106680000D01*
X113207800Y-106680000D02*
X113258600Y-106629200D01*
D22*
X104013000Y-106620000D02*
X112589000Y-106620000D01*
X112589000Y-106620000D02*
X112649000Y-106680000D01*
D23*
X113309400Y-106680000D02*
X116230400Y-106680000D01*
D22*
%TO.N,Net-(J18-Pin_4)*%
X156870400Y-96520000D02*
X153286400Y-96520000D01*
X158945400Y-109933800D02*
X158945400Y-98595000D01*
X158945400Y-98595000D02*
X156870400Y-96520000D01*
X137160000Y-99060000D02*
X145389600Y-99060000D01*
X145389600Y-99060000D02*
X147955000Y-96494600D01*
X147955000Y-96494600D02*
X153261000Y-96494600D01*
X157792500Y-111086700D02*
X158945400Y-109933800D01*
%TO.N,Net-(J18-Pin_3)*%
X154292500Y-111086700D02*
X158495400Y-106883800D01*
X158495400Y-100685000D02*
X156870400Y-99060000D01*
X158495400Y-106883800D02*
X158495400Y-100685000D01*
X153286400Y-99060000D02*
X156870400Y-99060000D01*
X145429600Y-101560000D02*
X147955000Y-99034600D01*
X147955000Y-99034600D02*
X153261000Y-99034600D01*
X137160000Y-101560000D02*
X145429600Y-101560000D01*
%TO.N,Net-(J18-Pin_2)*%
X153286400Y-101600000D02*
X147980400Y-101600000D01*
X158045400Y-105083800D02*
X158045400Y-102775000D01*
X156870400Y-101600000D02*
X153286400Y-101600000D01*
X147955000Y-101574600D02*
X145469600Y-104060000D01*
X158045400Y-102775000D02*
X156870400Y-101600000D01*
X152042500Y-111086700D02*
X158045400Y-105083800D01*
X145469600Y-104060000D02*
X137160000Y-104060000D01*
D23*
%TO.N,Net-(J10-Pin_3)*%
X116230400Y-109220000D02*
X112649000Y-109220000D01*
X119862600Y-109220000D02*
X116230400Y-109220000D01*
D22*
X153261000Y-68554600D02*
X153286400Y-68580000D01*
X119862600Y-109143800D02*
X119862600Y-109220000D01*
X147955000Y-68554600D02*
X153261000Y-68554600D01*
X156870400Y-68580000D02*
X153286400Y-68580000D01*
X103987600Y-109134600D02*
X112623600Y-109134600D01*
D23*
%TO.N,Net-(J13-Pin_1)*%
X127967800Y-96418400D02*
X124383800Y-96418400D01*
X131523800Y-96418400D02*
X127967800Y-96418400D01*
D22*
%TO.N,Net-(D1-K)*%
X132181600Y-78689200D02*
X134721600Y-78689200D01*
X124561600Y-78689200D02*
X127101600Y-78689200D01*
X139776200Y-75920600D02*
X137134600Y-78562200D01*
X127101600Y-78689200D02*
X129641600Y-78689200D01*
X138607800Y-72948800D02*
X139776200Y-74117200D01*
X104013000Y-68369600D02*
X112538200Y-68369600D01*
X139776200Y-63830200D02*
X139776200Y-69596000D01*
X139776200Y-74117200D02*
X139776200Y-69596000D01*
X137444400Y-67233800D02*
X139776200Y-69565600D01*
X137439400Y-72948800D02*
X138607800Y-72948800D01*
X139776200Y-74117200D02*
X139776200Y-75920600D01*
D23*
X112649000Y-68580000D02*
X116230400Y-68580000D01*
D22*
X119862600Y-68503800D02*
X124434600Y-73075800D01*
D23*
X119862600Y-68580000D02*
X116230400Y-68580000D01*
D22*
X124434600Y-73075800D02*
X124434600Y-78562200D01*
X137414000Y-61468000D02*
X139776200Y-63830200D01*
X129641600Y-78689200D02*
X132181600Y-78689200D01*
X134721600Y-78689200D02*
X137261600Y-78689200D01*
X139776200Y-69565600D02*
X139776200Y-69596000D01*
%TO.N,Net-(G5-A)*%
X153286400Y-86360000D02*
X147980400Y-86360000D01*
X156870400Y-86360000D02*
X153286400Y-86360000D01*
X147980400Y-86360000D02*
X147955000Y-86334600D01*
X144896600Y-86334600D02*
X147955000Y-86334600D01*
D23*
%TO.N,Net-(G5-B)*%
X89486800Y-73600000D02*
X93081800Y-73600000D01*
X93081800Y-73600000D02*
X93091000Y-73609200D01*
X89486800Y-73600000D02*
X85877400Y-73600000D01*
D22*
X101473000Y-73449600D02*
X92837000Y-73449600D01*
%TD*%
M02*
